<?xml version="1.0" encoding="iso-8859-1"?>
<!-- Generator: Adobe Illustrator 16.0.0, SVG Export Plug-In . SVG Version: 6.00 Build 0)  -->
<!DOCTYPE svg PUBLIC "-//W3C//DTD SVG 1.1//EN" "http://www.w3.org/Graphics/SVG/1.1/DTD/svg11.dtd">
<svg version="1.1" id="Capa_1" xmlns="http://www.w3.org/2000/svg" xmlns:xlink="http://www.w3.org/1999/xlink" x="0px" y="0px"
	viewBox="0 0 735.172 735.172" style="enable-background:new 0 0 735.172 735.172;"
	 xml:space="preserve">
<g>
	<g>
		<g>
			<path fill-rule="evenodd" fill="currentColor" d="M367.586,191.396c-52.768,0-95.702-42.934-95.702-95.702S314.818,0,367.586,0c52.769,0,95.701,42.927,95.701,95.695
				S420.354,191.396,367.586,191.396z M367.586,33.658c-34.209,0-62.044,27.828-62.044,62.037s27.834,62.044,62.044,62.044
				c34.209,0,62.044-27.834,62.044-62.044C429.63,61.485,401.795,33.658,367.586,33.658z"/>
			<path fill-rule="evenodd" fill="currentColor" d="M367.586,735.172c-9.296,0-16.829-7.531-16.829-16.828V187.001c0-9.296,7.532-16.829,16.829-16.829
				c9.296,0,16.829,7.532,16.829,16.829v531.343C384.415,727.641,376.882,735.172,367.586,735.172z"/>
			<path fill-rule="evenodd" fill="currentColor" d="M367.586,735.172c-168.725,0-306-137.268-306-305.992c0-9.297,7.533-16.828,16.829-16.828h62.913
				c9.296,0,16.829,7.531,16.829,16.828s-7.532,16.828-16.829,16.828H95.755c8.731,142.352,127.312,255.508,271.831,255.508
				c144.519,0,263.101-113.155,271.831-255.508h-44.73c-9.297,0-16.828-7.531-16.828-16.828s7.531-16.828,16.828-16.828h62.07
				c9.297,0,16.829,7.531,16.829,16.828C673.586,597.904,536.311,735.172,367.586,735.172z"/>
			<path fill-rule="evenodd" fill="currentColor" d="M463.584,316.649H271.595c-9.296,0-16.829-7.533-16.829-16.829c0-9.296,7.533-16.829,16.829-16.829h191.989
				c9.296,0,16.828,7.533,16.828,16.829C480.412,309.117,472.88,316.649,463.584,316.649z"/>
		</g>
	</g>
</g>
<g>
</g>
<g>
</g>
<g>
</g>
<g>
</g>
<g>
</g>
<g>
</g>
<g>
</g>
<g>
</g>
<g>
</g>
<g>
</g>
<g>
</g>
<g>
</g>
<g>
</g>
<g>
</g>
<g>
</g>
</svg>
