<?xml version="1.0" ?><!DOCTYPE svg  PUBLIC '-//W3C//DTD SVG 1.1//EN'  'http://www.w3.org/Graphics/SVG/1.1/DTD/svg11.dtd'><svg height="100%" fill-rule="evenodd" fill="currentColor" version="1.1" viewBox="0 0 24 24" width="100%" xml:space="preserve" xmlns="http://www.w3.org/2000/svg" xmlns:serif="http://www.serif.com/" xmlns:xlink="http://www.w3.org/1999/xlink"><g id="Icon"><path d="M13.5,17.75l3.5,0c1.519,-0 2.75,-1.231 2.75,-2.75c0,-1.743 -0,-4.257 0,-6c0,-0.729 -0.29,-1.429 -0.805,-1.945c-0.516,-0.515 -1.216,-0.805 -1.945,-0.805c-1.392,0 -3,0 -3,0c-0.414,0 -0.75,0.336 -0.75,0.75c0,0.414 0.336,0.75 0.75,0.75c0,0 1.608,0 3,-0c0.332,-0 0.649,0.132 0.884,0.366c0.234,0.235 0.366,0.552 0.366,0.884c0,1.743 0,4.257 0,6c0,0.69 -0.56,1.25 -1.25,1.25c-1.573,0 -3.5,0 -3.5,0c-0.414,0 -0.75,0.336 -0.75,0.75c0,0.414 0.336,0.75 0.75,0.75Z"/><path d="M20.25,10.5l-0,3c0,0.414 0.336,0.75 0.75,0.75c0.414,-0 0.75,-0.336 0.75,-0.75l-0,-3c0,-0.414 -0.336,-0.75 -0.75,-0.75c-0.414,-0 -0.75,0.336 -0.75,0.75Z"/><path d="M12.175,12.75l-2.792,-0c-0.45,-0 -0.866,-0.242 -1.088,-0.634c-0.222,-0.392 -0.215,-0.873 0.016,-1.259c0.839,-1.398 2.546,-4.243 2.546,-4.243c0.213,-0.355 0.674,-0.47 1.029,-0.257c0.355,0.213 0.47,0.674 0.257,1.029l-2.318,3.864l2.792,0c0.45,0 0.866,0.242 1.088,0.634c0.222,0.392 0.215,0.873 -0.016,1.259c-0.839,1.398 -2.546,4.243 -2.546,4.243c-0.213,0.355 -0.674,0.47 -1.029,0.257c-0.355,-0.213 -0.47,-0.674 -0.257,-1.029l2.318,-3.864Z"/><path d="M8.5,6.25l-3.5,0c-1.519,0 -2.75,1.231 -2.75,2.75c0,1.743 0,4.257 0,6c-0,0.729 0.29,1.429 0.805,1.945c0.516,0.515 1.216,0.805 1.945,0.805c1.392,0 3,0 3,0c0.414,0 0.75,-0.336 0.75,-0.75c0,-0.414 -0.336,-0.75 -0.75,-0.75c0,0 -1.608,0 -3,0c-0.332,0 -0.649,-0.132 -0.884,-0.366c-0.234,-0.235 -0.366,-0.552 -0.366,-0.884c0,-1.743 -0,-4.257 -0,-6c-0,-0.69 0.56,-1.25 1.25,-1.25c1.573,0 3.5,0 3.5,0c0.414,0 0.75,-0.336 0.75,-0.75c0,-0.414 -0.336,-0.75 -0.75,-0.75Z"/></g></svg>