<?xml version="1.0" encoding="iso-8859-1"?>
<!-- Generator: Adobe Illustrator 16.0.0, SVG Export Plug-In . SVG Version: 6.00 Build 0)  -->
<!DOCTYPE svg PUBLIC "-//W3C//DTD SVG 1.1//EN" "http://www.w3.org/Graphics/SVG/1.1/DTD/svg11.dtd">
<svg version="1.1" id="Capa_1" xmlns="http://www.w3.org/2000/svg" xmlns:xlink="http://www.w3.org/1999/xlink" x="0px" y="0px"
	  viewBox="0 0 791.997 791.997" fill-rule="evenodd" fill="currentColor">
<g>
	<g id="Shape_5">
		<g>
			<path d="M415.184,395.991l184.538-181.645c2.629-2.587,4.118-6.107,4.118-9.779c0-3.659-1.475-7.178-4.118-9.765L405.919,4.045
				c-4.02-3.951-10.029-5.133-15.301-2.991c-5.259,2.142-8.667,7.178-8.667,12.77v348.168L212.117,194.802
				c-5.48-5.397-14.37-5.397-19.851,0c-5.48,5.397-5.48,14.147,0,19.544l184.538,181.645L192.267,577.635
				c-5.48,5.397-5.48,14.147,0,19.544c5.48,5.397,14.37,5.397,19.851,0l169.834-167.177V778.17c0,5.592,3.408,10.628,8.667,12.77
				c1.738,0.71,3.561,1.058,5.369,1.058c3.645,0,7.233-1.405,9.932-4.048l193.803-190.771c2.629-2.587,4.118-6.106,4.118-9.765
				c0-3.659-1.475-7.178-4.118-9.766L415.184,395.991z M410.037,47.182l159.916,157.398L410.037,361.979V47.182z M410.037,744.812
				V430.002l159.916,157.412L410.037,744.812z"/>
		</g>
	</g>
</g>
<g>
</g>
<g>
</g>
<g>
</g>
<g>
</g>
<g>
</g>
<g>
</g>
<g>
</g>
<g>
</g>
<g>
</g>
<g>
</g>
<g>
</g>
<g>
</g>
<g>
</g>
<g>
</g>
<g>
</g>
</svg>
