<?xml version="1.0" encoding="iso-8859-1"?>
<!-- Generator: Adobe Illustrator 19.1.0, SVG Export Plug-In . SVG Version: 6.00 Build 0)  -->
<svg version="1.1" id="Capa_1" xmlns="http://www.w3.org/2000/svg" xmlns:xlink="http://www.w3.org/1999/xlink" x="0px" y="0px"
	 viewBox="0 0 58.999 58.999" fill-rule="evenodd" fill="currentColor">
<g>
	<g>
		<path d="M29.167,0c-1.104,0-2,0.896-2,2v50.289L11.86,36.728c-0.781-0.781-1.922-0.781-2.703,0
			c-0.781,0.78-0.719,2.047,0.062,2.828l18.883,18.857c0.375,0.375,0.899,0.586,1.43,0.586s1.047-0.211,1.422-0.586l18.857-18.857
			c0.781-0.781,0.783-2.048,0.002-2.828c-0.781-0.781-2.296-0.781-3.077,0L31.167,52.052V2C31.167,0.895,30.271,0,29.167,0z"/>
	</g>
</g>
<g>
</g>
<g>
</g>
<g>
</g>
<g>
</g>
<g>
</g>
<g>
</g>
<g>
</g>
<g>
</g>
<g>
</g>
<g>
</g>
<g>
</g>
<g>
</g>
<g>
</g>
<g>
</g>
<g>
</g>
</svg>
