<svg viewBox="0 0 24 24" fill="none" xmlns="http://www.w3.org/2000/svg">
<path fill-rule="evenodd" clip-rule="evenodd" d="M16.53 4.80239L14.5032 4.79999C12.228 4.79999 10.7556 6.19199 10.7556 8.34359V9.97799H8.71919C8.54279 9.97799 8.39999 10.11 8.39999 10.272V12.6396C8.39999 12.8016 8.54279 12.9324 8.71919 12.9324H10.7556V18.906C10.7556 19.0692 10.8996 19.2 11.0748 19.2H13.7328C13.9092 19.2 14.0508 19.068 14.0508 18.906V12.9324H16.434C16.6092 12.9324 16.752 12.8004 16.752 12.6396V10.272C16.7518 10.2329 16.7434 10.1942 16.7275 10.1585C16.7116 10.1228 16.6885 10.0907 16.6596 10.0644C16.5979 10.0083 16.5174 9.97747 16.434 9.97799H14.052V8.59199C14.052 7.92599 14.2248 7.58759 15.1656 7.58759H16.5312C16.7064 7.58759 16.8492 7.45559 16.8492 7.29359V5.09639C16.8492 4.93439 16.7064 4.80359 16.5312 4.80239H16.53Z" />
</svg>
