<svg viewBox="0 0 24 24" fill="none" xmlns="http://www.w3.org/2000/svg">
<path fill-rule="evenodd" clip-rule="evenodd" d="M12 4.79999C14.3448 4.79999 14.6232 4.80839 15.5496 4.85159C17.9292 4.95959 19.0416 6.08879 19.1496 8.45159C19.1916 9.37679 19.2 9.65519 19.2 12C19.2 14.346 19.1916 14.6232 19.1496 15.5484C19.0404 17.9088 17.9316 19.0404 15.5496 19.1484C14.6232 19.1916 14.346 19.2 12 19.2C9.65519 19.2 9.37679 19.1916 8.45159 19.1484C6.06479 19.0404 4.95959 17.9052 4.85159 15.5484C4.80839 14.622 4.79999 14.3448 4.79999 11.9988C4.79999 9.65399 4.80959 9.37679 4.85159 8.45039C4.95959 6.08879 6.06959 4.95839 8.45159 4.85039C9.37799 4.80839 9.65519 4.79999 12 4.79999ZM12 7.85159C11.4552 7.85159 10.9158 7.95889 10.4125 8.16737C9.90916 8.37584 9.45184 8.68141 9.06663 9.06663C8.68141 9.45184 8.37584 9.90916 8.16737 10.4125C7.95889 10.9158 7.85159 11.4552 7.85159 12C7.85159 12.5448 7.95889 13.0842 8.16737 13.5875C8.37584 14.0908 8.68141 14.5481 9.06663 14.9334C9.45184 15.3186 9.90916 15.6241 10.4125 15.8326C10.9158 16.0411 11.4552 16.1484 12 16.1484C13.1002 16.1484 14.1554 15.7113 14.9334 14.9334C15.7113 14.1554 16.1484 13.1002 16.1484 12C16.1484 10.8998 15.7113 9.8446 14.9334 9.06663C14.1554 8.28865 13.1002 7.85159 12 7.85159ZM12 14.6916C11.6417 14.6992 11.2854 14.6351 10.9522 14.5032C10.6189 14.3713 10.3153 14.1742 10.0593 13.9235C9.80316 13.6727 9.5997 13.3734 9.4608 13.043C9.32189 12.7126 9.25035 12.3578 9.25035 11.9994C9.25035 11.641 9.32189 11.2862 9.4608 10.9558C9.5997 10.6254 9.80316 10.326 10.0593 10.0753C10.3153 9.82456 10.6189 9.62746 10.9522 9.49556C11.2854 9.36367 11.6417 9.29962 12 9.30719C12.7042 9.32206 13.3745 9.61223 13.8672 10.1155C14.36 10.6188 14.6359 11.2951 14.6359 11.9994C14.6359 12.7037 14.36 13.38 13.8672 13.8833C13.3745 14.3865 12.7042 14.6767 12 14.6916ZM16.3128 6.71759C16.1854 6.71759 16.0592 6.74268 15.9415 6.79144C15.8238 6.8402 15.7168 6.91166 15.6268 7.00175C15.5367 7.09184 15.4652 7.1988 15.4164 7.31651C15.3677 7.43422 15.3426 7.56038 15.3426 7.68779C15.3426 7.8152 15.3677 7.94136 15.4164 8.05907C15.4652 8.17678 15.5367 8.28373 15.6268 8.37382C15.7168 8.46391 15.8238 8.53538 15.9415 8.58414C16.0592 8.63289 16.1854 8.65799 16.3128 8.65799C16.5701 8.65799 16.8169 8.55577 16.9988 8.37382C17.1808 8.19187 17.283 7.9451 17.283 7.68779C17.283 7.43047 17.1808 7.1837 16.9988 7.00175C16.8169 6.8198 16.5701 6.71759 16.3128 6.71759Z" />
</svg>
