<svg  viewBox="0 0 24 24" fill="none" xmlns="http://www.w3.org/2000/svg">
<path d="M7.90512 19V9.55422H4.68971V19H7.90512ZM6.29783 8.26379C7.4191 8.26379 8.11704 7.53846 8.11704 6.63205C8.09614 5.70519 7.41914 5 6.31911 5C5.21924 5 4.5 5.70521 4.5 6.63205C4.5 7.53851 5.19776 8.26379 6.27684 8.26379H6.29773H6.29783ZM9.68484 19H12.9002V13.725C12.9002 13.4427 12.9211 13.1607 13.006 12.9589C13.2385 12.3948 13.7676 11.8106 14.6558 11.8106C15.8193 11.8106 16.2848 12.6769 16.2848 13.9466V18.9999H19.5V13.5838C19.5 10.6824 17.9137 9.33246 15.7981 9.33246C14.0636 9.33246 13.302 10.2792 12.8789 10.924H12.9003V9.55403H9.68491C9.72711 10.4404 9.68491 18.9998 9.68491 18.9998L9.68484 19Z"/>
</svg>
