<svg viewBox="0 0 24 24" fill="none" xmlns="http://www.w3.org/2000/svg">
<path fill-rule="evenodd" clip-rule="evenodd" d="M21.2832 6.51481C20.6199 6.80696 19.9171 6.99983 19.1976 7.08721C19.9548 6.63182 20.5217 5.91789 20.7936 5.07721C20.0779 5.49377 19.2981 5.78896 18.486 5.95081C17.9399 5.36559 17.2157 4.97723 16.426 4.84613C15.6363 4.71502 14.8255 4.84852 14.1195 5.22586C13.4136 5.6032 12.8521 6.20323 12.5224 6.93264C12.1927 7.66206 12.1132 8.47998 12.2964 9.25921C10.8531 9.1896 9.44067 8.81669 8.15111 8.16478C6.86155 7.51287 5.72381 6.59658 4.81201 5.47561C4.49641 6.00841 4.32001 6.62761 4.32001 7.30201C4.32001 8.56441 4.96201 9.67441 5.93521 10.326C5.3588 10.3075 4.79516 10.1516 4.29121 9.87121V9.91681C4.29058 10.7558 4.58029 11.5691 5.11116 12.2187C5.64203 12.8684 6.38134 13.3143 7.20361 13.4808C6.67102 13.6229 6.11334 13.6438 5.57161 13.542C5.80497 14.2637 6.25769 14.8946 6.86665 15.3467C7.47562 15.7989 8.21048 16.0498 8.96881 16.0644C8.21658 16.6555 7.35528 17.0926 6.43409 17.3508C5.5129 17.609 4.54987 17.6832 3.60001 17.5692C5.26524 18.6354 7.20147 19.2014 9.17881 19.2C15.8628 19.2 19.512 13.6668 19.512 8.87521C19.512 8.72161 19.512 8.56561 19.5012 8.41081C20.2147 7.89753 20.83 7.2602 21.318 6.52921L21.282 6.51481H21.2832Z"/>
</svg>
