<svg viewBox="0 0 24 24" fill="none" xmlns="http://www.w3.org/2000/svg">
<path d="M19.6218 17.4146C18.7251 18.2081 17.4256 18.7772 15.7232 19.122C14.0208 19.4667 12.2664 19.5675 10.46 19.4244L7.02924 22V18.7805C5.89864 18.4293 5.01494 17.974 4.37817 17.4146C3.62443 16.7512 3.03964 15.7984 2.62378 14.5561C2.20793 13.3138 2 12.0455 2 10.7512C2 9.45691 2.20793 8.18862 2.62378 6.94634C3.03964 5.70407 3.62768 4.74797 4.38791 4.07805C5.14815 3.40813 6.23652 2.89431 7.65302 2.53659C9.06953 2.17886 10.5185 2 12 2C13.4815 2 14.9305 2.17886 16.347 2.53659C17.7635 2.89431 18.8519 3.40813 19.6121 4.07805C20.3723 4.74797 20.9604 5.70407 21.3762 6.94634C21.7921 8.18862 22 9.45691 22 10.7512C22 12.0455 21.7921 13.3138 21.3762 14.5561C20.9604 15.7984 20.3756 16.7512 19.6218 17.4146ZM14.4561 12.6341L15.7232 12.8488C15.6192 11.2878 15.0182 9.95447 13.9201 8.84878C12.822 7.74309 11.4932 7.13821 9.93372 7.03415L10.1481 8.30244C11.2658 8.44553 12.2274 8.92033 13.0331 9.72683C13.8389 10.5333 14.3132 11.5024 14.4561 12.6341ZM10.3626 9.60976L10.5965 11.0146C11.1163 11.2748 11.4997 11.6585 11.7466 12.1659L13.1501 12.4C12.9942 11.7106 12.6628 11.1154 12.1559 10.6146C11.6491 10.1138 11.0513 9.77886 10.3626 9.60976ZM8.2768 10.761V9.5122C8.2768 9.29106 8.19558 9.06992 8.03314 8.84878C7.8707 8.62764 7.69851 8.46829 7.51657 8.37073C7.33463 8.27317 7.19818 8.26341 7.10721 8.34146L6.21053 9.25854C5.7037 9.76585 5.62898 10.5561 5.98635 11.6293C6.34373 12.7024 7.02599 13.7431 8.03314 14.7512C9.04029 15.7593 10.0799 16.4423 11.152 16.8C12.2242 17.1577 13.0071 17.0829 13.501 16.5756L14.4172 15.6585C14.5081 15.5805 14.5049 15.4472 14.4074 15.2585C14.3099 15.0699 14.1507 14.8976 13.9298 14.7415C13.7089 14.5854 13.488 14.5073 13.2671 14.5073H12.0195L11.2982 15.1317C10.7264 14.9756 10.0149 14.4715 9.16374 13.6195C8.31254 12.7675 7.80897 12.0488 7.65302 11.4634L8.2768 10.761ZM9.52437 4.51707L9.7193 5.78537C11.0188 5.81138 12.2209 6.15285 13.3255 6.80976C14.4302 7.46667 15.3073 8.34472 15.9571 9.4439C16.6069 10.5431 16.9513 11.7431 16.9903 13.0439L18.2573 13.2585C18.2573 12.0748 18.0266 10.9431 17.5653 9.86341C17.104 8.78374 16.4834 7.85366 15.7037 7.07317C14.924 6.29268 13.9948 5.67154 12.9162 5.20976C11.8376 4.74797 10.707 4.51707 9.52437 4.51707Z" />
</svg>
