<svg width="24" height="24" viewBox="0 0 24 24" fill="none" xmlns="http://www.w3.org/2000/svg">
<path d="M7.58115 5H8.46264L9.03122 7.06201H9.08623L9.62685 5H10.5169L9.49832 8.01826V10.1585H8.62295V8.1147L7.58115 5Z" fill="#1A141F"/>
<path d="M10.5798 7.22355C10.5798 6.92804 10.6843 6.69334 10.8943 6.51905C11.1034 6.34436 11.3854 6.25687 11.7378 6.25687C12.0593 6.25687 12.3234 6.349 12.5295 6.53339C12.734 6.71736 12.837 6.95476 12.837 7.24487V9.21081C12.837 9.53613 12.7363 9.791 12.5357 9.97654C12.3327 10.1617 12.0562 10.2546 11.7022 10.2546C11.3629 10.2546 11.0903 10.1586 10.8858 9.96807C10.6828 9.77671 10.5798 9.51917 10.5798 9.19579L10.5798 7.22355ZM11.3799 9.26773C11.3799 9.37191 11.4086 9.45206 11.4636 9.50978C11.5186 9.56709 11.5976 9.59536 11.7006 9.59536C11.806 9.59536 11.8889 9.56597 11.9516 9.50823C12.0136 9.44934 12.0446 9.36921 12.0446 9.2677V7.19447C12.0446 7.11125 12.0128 7.04423 11.9493 6.9927C11.8858 6.9416 11.8029 6.9164 11.7006 6.9164C11.6054 6.9164 11.5287 6.9416 11.469 6.9927C11.4102 7.04423 11.38 7.11119 11.38 7.19447V9.26773H11.3799Z" fill="#1A141F"/>
<path d="M15.6858 6.35291V10.1586H14.9081V9.73837C14.7663 9.89289 14.6169 10.0118 14.4611 10.0923C14.3062 10.1733 14.1559 10.2136 14.0102 10.2136C13.829 10.2136 13.695 10.1567 13.6036 10.0436C13.513 9.9301 13.4673 9.76047 13.4673 9.53348V6.35291H14.2434V9.27045C14.2434 9.36071 14.2613 9.42576 14.2938 9.46603C14.3255 9.50636 14.379 9.52684 14.4518 9.52684C14.5084 9.52684 14.5812 9.49976 14.6687 9.44668C14.7554 9.39325 14.836 9.32501 14.908 9.2414V6.35291H15.6858Z" fill="#1A141F"/>
<path d="M13.3075 14.8495C13.258 14.8495 13.2092 14.86 13.1611 14.8832C13.1131 14.9057 13.0659 14.9409 13.0186 14.9886V17.1412C13.0744 17.1969 13.1294 17.2391 13.1828 17.2632C13.2356 17.2875 13.2906 17.3008 13.3494 17.3008C13.4338 17.3008 13.4958 17.2763 13.5353 17.2268C13.5748 17.1783 13.5957 17.1001 13.5957 16.989V15.205C13.5957 15.0884 13.5716 14.9997 13.5229 14.9393C13.4725 14.8797 13.4004 14.8495 13.3075 14.8495Z" fill="#1A141F"/>
<path d="M15.6888 14.8619C15.5789 14.8619 15.4999 14.8925 15.4518 14.9572C15.4038 15.0176 15.3806 15.1221 15.3806 15.2667V15.6156H15.991V15.2667C15.991 15.1222 15.9662 15.0176 15.9181 14.9572C15.8716 14.8925 15.7934 14.8619 15.6888 14.8619Z" fill="#1A141F"/>
<path d="M17.2636 12.1721C16.6966 11.6148 11.9172 11.6074 11.9172 11.6078C11.9172 11.6074 7.13867 11.6148 6.57012 12.1721C6.00155 12.7302 6 15.4855 6 15.5014V15.5064C6 15.5223 6.00158 18.2729 6.57012 18.8311C7.13861 19.388 11.9172 19.4 11.9172 19.4C11.9172 19.4 16.6966 19.388 17.2636 18.831C17.8345 18.271 17.8391 15.5014 17.8391 15.5014C17.8391 15.4855 17.8329 12.7302 17.2636 12.1721ZM9.52597 13.7953H8.72115V17.798H7.94265V13.7953H7.13783V13.1152H9.52595L9.52597 13.7953ZM11.8018 17.7981H11.1116V17.4181C10.983 17.5591 10.8513 17.6656 10.7127 17.7384C10.5748 17.8128 10.4415 17.8484 10.3114 17.8484C10.151 17.8484 10.0325 17.7981 9.95044 17.6943C9.87065 17.5908 9.82958 17.4379 9.82958 17.2315V14.3429H10.5198V16.9929C10.5198 17.075 10.5345 17.1338 10.5624 17.1702C10.5926 17.2074 10.6399 17.2252 10.7042 17.2252C10.7546 17.2252 10.8196 17.2008 10.8971 17.1524C10.9753 17.1036 11.0458 17.0424 11.1116 16.9677V14.343H11.8018L11.8018 17.7981ZM14.3069 17.0842C14.3069 17.3286 14.2526 17.5161 14.1442 17.6466C14.0366 17.7775 13.8793 17.8418 13.6748 17.8418C13.5393 17.8418 13.4192 17.8174 13.3138 17.7671C13.2085 17.7167 13.1085 17.6393 13.0187 17.5332V17.7981H12.3208V13.1152H13.0187V14.6229C13.1124 14.5183 13.2108 14.4374 13.3146 14.3832C13.4199 14.3282 13.5261 14.3011 13.633 14.3011C13.8522 14.3011 14.0187 14.3747 14.1334 14.5211C14.2496 14.6686 14.3069 14.8844 14.3069 15.1671V17.0842H14.3069ZM16.7012 16.1532H15.3804V16.8042C15.3804 16.9863 15.403 17.1121 15.4478 17.183C15.4943 17.2531 15.5718 17.2876 15.6818 17.2876C15.7964 17.2876 15.8762 17.2578 15.9219 17.1982C15.9668 17.1385 15.9908 17.0076 15.9908 16.8042V16.6466H16.7011V16.824C16.7011 17.1784 16.6151 17.4453 16.4409 17.6253C16.2689 17.8035 16.0102 17.8922 15.6663 17.8922C15.3572 17.8922 15.1132 17.798 14.9358 17.6075C14.7583 17.4181 14.6685 17.157 14.6685 16.824V15.2725C14.6685 14.9739 14.7669 14.7283 14.9621 14.5401C15.1572 14.3515 15.4082 14.2573 15.7181 14.2573C16.0341 14.2573 16.2774 14.3448 16.447 14.5195C16.6166 14.6938 16.7011 14.9448 16.7011 15.2725V16.1532H16.7012V16.1532Z" fill="#1A141F"/>
</svg>
