<?xml version="1.0" encoding="utf-8"?>
<svg xmlns="http://www.w3.org/2000/svg">
<symbol id="activity" viewBox="0 0 24 24">
  <path fill-rule="evenodd" fill="currentColor" d="M6.21690481,12 L2.5,12 C2.22385763,12 2,11.7761424 2,11.5 C2,11.2238576 2.22385763,11 2.5,11 L6.5,11 C6.67563143,11 6.83838484,11.0921494 6.92874646,11.2427521 L9.43884157,15.426244 L14.0448168,5.29309853 C14.2188617,4.91019956 14.7591161,4.90019827 14.9472136,5.2763932 L17.809017,11 L21.5,11 C21.7761424,11 22,11.2238576 22,11.5 C22,11.7761424 21.7761424,12 21.5,12 L17.5,12 C17.310614,12 17.1374824,11.8929988 17.0527864,11.7236068 L14.521493,6.66101999 L9.95518324,16.7069015 C9.7884528,17.0737084 9.27855536,17.1027509 9.07125354,16.7572479 L6.21690481,12 Z"/>

</symbol>
<symbol id="add-plus" viewBox="0 0 32 32"><defs>
    <g id="plus">
      <line fill-rule="evenodd" stroke="currentColor" fill="currentColor" x1="16" x2="16" y1="7" y2="25"/>
      <line fill-rule="evenodd" stroke="currentColor" fill="currentColor" x1="7" x2="25" y1="16" y2="16"/>
    </g>
</defs>
</symbol>
<symbol id="airplay" viewBox="0 0 256 256">
  <path d="M132.55811,156.09521a6.00035,6.00035,0,0,0-9.11133,0l-48.00293,56A6.00013,6.00013,0,0,0,79.99951,222h96a6,6,0,0,0,4.55567-9.90479ZM93.04541,210l34.957-40.78027L162.95459,210ZM229.99951,64V176a22.02489,22.02489,0,0,1-22,22h-16a6,6,0,0,1,0-12h16a10.01146,10.01146,0,0,0,10-10V64a10.01146,10.01146,0,0,0-10-10h-160a10.01146,10.01146,0,0,0-10,10V176a10.01146,10.01146,0,0,0,10,10h16a6,6,0,0,1,0,12h-16a22.02489,22.02489,0,0,1-22-22V64a22.02489,22.02489,0,0,1,22-22h160A22.02489,22.02489,0,0,1,229.99951,64Z"/>

</symbol>
<symbol id="alert_circle" viewBox="0 0 48 48">
  <path fill-rule="evenodd" clip-rule="evenodd" d="M24 4C12.9543 4 4 12.9543 4 24C4 35.0457 12.9543 44 24 44C35.0457 44 44 35.0457 44 24C44 12.9543 35.0457 4 24 4ZM24 6C14.0589 6 6 14.0589 6 24C6 33.9411 14.0589 42 24 42C33.9411 42 42 33.9411 42 24C42 14.0589 33.9411 6 24 6Z" fill="currentColor"/>
  <path d="M26 13C26 11.8954 25.1046 11 24 11C22.8954 11 22 11.8954 22 13L22 27C22 28.1046 22.8954 29 24 29C25.1046 29 26 28.1046 26 27L26 13Z" fill="currentColor"/>
  <path d="M24 33C25.1046 33 26 33.8954 26 35C26 36.1046 25.1046 37 24 37C22.8954 37 22 36.1046 22 35C22 33.8954 22.8954 33 24 33Z" fill="currentColor"/>

</symbol>
<symbol id="align_center" viewBox="0 0 32 32">
    <path style="text-indent:0;text-align:start;line-height:normal;text-transform:none;block-progression:tb;-inkscape-font-specification:Bitstream Vera Sans" d="M 3 7 L 3 9 L 29 9 L 29 7 L 3 7 z M 7 11 L 7 13 L 25 13 L 25 11 L 7 11 z M 3 15 L 3 17 L 29 17 L 29 15 L 3 15 z M 7 19 L 7 21 L 25 21 L 25 19 L 7 19 z M 3 23 L 3 25 L 29 25 L 29 23 L 3 23 z" color="currentColor" overflow="visible"/>

</symbol>
<symbol id="align_justify" viewBox="0 0 32 32">
    <path fill-rule="evenodd" fill="currentColor" d="M 3 7 L 3 9 L 29 9 L 29 7 L 3 7 z M 3 11 L 3 13 L 29 13 L 29 11 L 3 11 z M 3 15 L 3 17 L 29 17 L 29 15 L 3 15 z M 3 19 L 3 21 L 29 21 L 29 19 L 3 19 z M 3 23 L 3 25 L 29 25 L 29 23 L 3 23 z" overflow="visible"/>

</symbol>
<symbol id="align_left" viewBox="0 0 32 32">
    <path fill-rule="evernode" fill="currentColor" d="M 3 7 L 3 9 L 29 9 L 29 7 L 3 7 z M 3 11 L 3 13 L 21 13 L 21 11 L 3 11 z M 3 15 L 3 17 L 29 17 L 29 15 L 3 15 z M 3 19 L 3 21 L 21 21 L 21 19 L 3 19 z M 3 23 L 3 25 L 29 25 L 29 23 L 3 23 z"/>

</symbol>
<symbol id="align_right" viewBox="0 0 32 32">
    <path fill-rule="evenodd" fill="currentColor" d="M 3 7 L 3 9 L 29 9 L 29 7 L 3 7 z M 11 11 L 11 13 L 29 13 L 29 11 L 11 11 z M 3 15 L 3 17 L 29 17 L 29 15 L 3 15 z M 11 19 L 11 21 L 29 21 L 29 19 L 11 19 z M 3 23 L 3 25 L 29 25 L 29 23 L 3 23 z" overflow="visible"/>

</symbol>
<symbol id="anchor" viewBox="0 0 735.172 735.172">
<g>
	<g>
		<g>
			<path fill-rule="evenodd" fill="currentColor" d="M367.586,191.396c-52.768,0-95.702-42.934-95.702-95.702S314.818,0,367.586,0c52.769,0,95.701,42.927,95.701,95.695
				S420.354,191.396,367.586,191.396z M367.586,33.658c-34.209,0-62.044,27.828-62.044,62.037s27.834,62.044,62.044,62.044
				c34.209,0,62.044-27.834,62.044-62.044C429.63,61.485,401.795,33.658,367.586,33.658z"/>
			<path fill-rule="evenodd" fill="currentColor" d="M367.586,735.172c-9.296,0-16.829-7.531-16.829-16.828V187.001c0-9.296,7.532-16.829,16.829-16.829
				c9.296,0,16.829,7.532,16.829,16.829v531.343C384.415,727.641,376.882,735.172,367.586,735.172z"/>
			<path fill-rule="evenodd" fill="currentColor" d="M367.586,735.172c-168.725,0-306-137.268-306-305.992c0-9.297,7.533-16.828,16.829-16.828h62.913
				c9.296,0,16.829,7.531,16.829,16.828s-7.532,16.828-16.829,16.828H95.755c8.731,142.352,127.312,255.508,271.831,255.508
				c144.519,0,263.101-113.155,271.831-255.508h-44.73c-9.297,0-16.828-7.531-16.828-16.828s7.531-16.828,16.828-16.828h62.07
				c9.297,0,16.829,7.531,16.829,16.828C673.586,597.904,536.311,735.172,367.586,735.172z"/>
			<path fill-rule="evenodd" fill="currentColor" d="M463.584,316.649H271.595c-9.296,0-16.829-7.533-16.829-16.829c0-9.296,7.533-16.829,16.829-16.829h191.989
				c9.296,0,16.828,7.533,16.828,16.829C480.412,309.117,472.88,316.649,463.584,316.649z"/>
		</g>
	</g>
</g>
<g>
</g>
<g>
</g>
<g>
</g>
<g>
</g>
<g>
</g>
<g>
</g>
<g>
</g>
<g>
</g>
<g>
</g>
<g>
</g>
<g>
</g>
<g>
</g>
<g>
</g>
<g>
</g>
<g>
</g>

</symbol>
<symbol id="aperture" viewBox="0 0 256 256">
  <path fill-rule="evenodd" fill="currentColor" d="M230,128A101.99946,101.99946,0,0,0,55.875,55.876,101.99951,101.99951,0,0,0,127.97,229.99951c.01,0,.01978.00244.03.00244.00879,0,.01782-.00195.02661-.00244A102.00047,102.00047,0,0,0,230,128Zm-22.02173,41.32373L151.84082,159.0752l58.08984-68.38526a90.2466,90.2466,0,0,1-1.95239,78.63379Zm-99.63061-18.189L98.13843,122.54883l19.6521-23.13526,29.86181,5.45166,10.20923,28.58594-19.6521,23.13526ZM203.76514,79.4126,166.832,122.89111,136.66211,38.415a89.31566,89.31566,0,0,1,54.97754,25.94531A90.74084,90.74084,0,0,1,203.76514,79.4126ZM64.36035,64.36035a89.34494,89.34494,0,0,1,59.448-26.2583l19.18359,53.71436L54.75415,75.707A91.10016,91.10016,0,0,1,64.36035,64.36035ZM48.02173,86.67627,104.15918,96.9248,46.06934,165.31006a90.2466,90.2466,0,0,1,1.95239-78.63379Zm4.21313,89.91113L89.168,133.10889,119.33789,217.585a89.31566,89.31566,0,0,1-54.97754-25.94531A90.74084,90.74084,0,0,1,52.23486,176.5874ZM132.19165,217.898l-19.18359-53.71436,26.488,4.83594.02491.0044,61.72485,11.269a91.10016,91.10016,0,0,1-9.6062,11.34668A89.34494,89.34494,0,0,1,132.19165,217.898Z"/>

</symbol>
<symbol id="archive" viewBox="0 0 256 256">
  <path fill-rule="evenodd" fill="currentColor" d="M216,44H40A12.01343,12.01343,0,0,0,28,56V88a12.01343,12.01343,0,0,0,12,12h4V200a12.01343,12.01343,0,0,0,12,12H200a12.01343,12.01343,0,0,0,12-12V100h4a12.01343,12.01343,0,0,0,12-12V56A12.01343,12.01343,0,0,0,216,44ZM204,200a4.00427,4.00427,0,0,1-4,4H56a4.00427,4.00427,0,0,1-4-4V100H204ZM220,88a4.00427,4.00427,0,0,1-4,4H40a4.00427,4.00427,0,0,1-4-4V56a4.00427,4.00427,0,0,1,4-4H216a4.00427,4.00427,0,0,1,4,4ZM100,136a4.0002,4.0002,0,0,1,4-4h48a4,4,0,0,1,0,8H104A4.0002,4.0002,0,0,1,100,136Z"/>

</symbol>
<symbol id="arrow_circle_down" viewBox="0 0 24 24">
  <path fill-rule="evenodd" fill="currentColor" d="M13,16.2928932 L16.1464466,13.1464466 C16.3417088,12.9511845 16.6582912,12.9511845 16.8535534,13.1464466 C17.0488155,13.3417088 17.0488155,13.6582912 16.8535534,13.8535534 L12.8535534,17.8535534 C12.6582912,18.0488155 12.3417088,18.0488155 12.1464466,17.8535534 L8.14644661,13.8535534 C7.95118446,13.6582912 7.95118446,13.3417088 8.14644661,13.1464466 C8.34170876,12.9511845 8.65829124,12.9511845 8.85355339,13.1464466 L12,16.2928932 L12,7.5 C12,7.22385763 12.2238576,7 12.5,7 C12.7761424,7 13,7.22385763 13,7.5 L13,16.2928932 L13,16.2928932 Z M22,12.5 C22,17.7467051 17.7467051,22 12.5,22 C7.25329488,22 3,17.7467051 3,12.5 C3,7.25329488 7.25329488,3 12.5,3 C17.7467051,3 22,7.25329488 22,12.5 Z M21,12.5 C21,7.80557963 17.1944204,4 12.5,4 C7.80557963,4 4,7.80557963 4,12.5 C4,17.1944204 7.80557963,21 12.5,21 C17.1944204,21 21,17.1944204 21,12.5 Z"/>

</symbol>
<symbol id="arrow_circle_right" viewBox="0 0 256 256">
  <path fill-rule="evenodd" fill="currentColor" d="M128,26A102,102,0,1,0,230,128,102.1153,102.1153,0,0,0,128,26Zm0,192a90,90,0,1,1,90-90A90.10217,90.10217,0,0,1,128,218Zm44.24268-94.24268a5.99989,5.99989,0,0,1,0,8.48536l-33.94092,33.94091a6,6,0,1,1-8.48535-8.48535L153.51465,134H88a6,6,0,0,1,0-12h65.51465L129.81641,98.30176a6,6,0,1,1,8.48535-8.48535Z"/>

</symbol>
<symbol id="arrow_down_left" viewBox="0 0 256 256">
  <path fill-rule="evenodd" fill="currentColor" d="M197.65674,69.65723,83.314,184H168a8,8,0,0,1,0,16H64a8.00008,8.00008,0,0,1-8-8V88a8,8,0,0,1,16,0v84.686L186.34326,58.34277a8.00018,8.00018,0,1,1,11.31348,11.31446Z"/>

</symbol>
<symbol id="arrow_down_right" viewBox="0 0 256 256">
  <path fill-rule="evenodd" fill="currentColor" d="M200,88V192a8.00039,8.00039,0,0,1-8,8H88a8,8,0,0,1,0-16h84.686L58.34326,69.65723A8.00018,8.00018,0,0,1,69.65674,58.34277L184,172.686V88a8,8,0,0,1,16,0Z"/>

</symbol>
<symbol id="arrow_up" viewBox="0 0 24 24">
  <line x1="12" y1="19" x2="12" y2="5"/>
  <polyline points="5 12 12 5 19 12"/>

</symbol>
<symbol id="arrow_up_circle" viewBox="0 0 16 16">
  <path fill-rule="evenodd" d="M8 15A7 7 0 1 0 8 1a7 7 0 0 0 0 14zm0 1A8 8 0 1 0 8 0a8 8 0 0 0 0 16z"/>
  <path fill-rule="evenodd" d="M8 12a.5.5 0 0 0 .5-.5V5.707l2.146 2.147a.5.5 0 0 0 .708-.708l-3-3a.5.5 0 0 0-.708 0l-3 3a.5.5 0 1 0 .708.708L7.5 5.707V11.5a.5.5 0 0 0 .5.5z"/>

</symbol>
<symbol id="arrow_up_left" viewBox="0 0 256 256">
  <path d="M197.65674,197.65723a8.00063,8.00063,0,0,1-11.31348,0L72,83.314V168a8,8,0,0,1-16,0V64a8.00008,8.00008,0,0,1,8-8H168a8,8,0,0,1,0,16H83.314L197.65674,186.34277A8.00034,8.00034,0,0,1,197.65674,197.65723Z"/>

</symbol>
<symbol id="arrow_up_right" viewBox="0 0 256 256">
  <path d="M200,64V168a8,8,0,0,1-16,0V83.314L69.65674,197.65723a8.00018,8.00018,0,0,1-11.31348-11.31446L172.686,72H88a8,8,0,0,1,0-16H192A8.00039,8.00039,0,0,1,200,64Z"/>

</symbol>
<symbol id="at_sign" viewBox="0 0 512 512">
  <path fill="currentColor" d="M495.826,232a206.644,206.644,0,0,0-18.882-78.412,227.033,227.033,0,0,0-51.61-71.261C379.708,39.555,319.571,16,256,16A240,240,0,0,0,86.294,425.706a240,240,0,0,0,337.671,1.722l-22.4-22.856A206.824,206.824,0,0,1,256,464C141.309,464,48,370.691,48,256S141.309,48,256,48c112.748,0,208,87.925,208,192v36c0,28.673-25.122,52-56,52s-56-23.327-56-52V160H320v26.751a99.988,99.988,0,1,0,12.55,132.437C347.956,343.62,376.01,360,408,360c48.523,0,88-37.682,88-84V232ZM252,328a68,68,0,1,1,68-68A68.077,68.077,0,0,1,252,328Z"/>

</symbol>
<symbol id="award" viewBox="0 0 564.188 564.188">
<g>
	<g>
		<polygon points="310.781,153 282.094,76.5 253.406,153 186.469,153 243.844,191.25 215.156,267.75 282.094,223.763 
			349.031,267.75 320.344,191.25 377.719,153 		"/>
		<path d="M391.106,306c38.25-32.513,63.112-80.325,63.112-133.875C454.219,76.5,377.719,0,282.094,0S109.969,76.5,109.969,172.125
			c0,53.55,24.862,101.362,63.112,133.875L90.844,522.112l74.587-32.513l32.513,74.588l84.15-219.938l0,0l0,0l84.15,219.938
			l32.512-74.588l74.588,32.513L391.106,306z M196.031,514.463l-22.95-49.726l-49.725,22.95l65.025-170.213
			c21.038,13.388,45.9,22.95,72.675,24.863L196.031,514.463z M282.094,325.125c-84.15,0-153-68.85-153-153s68.85-153,153-153
			c84.15,0,153,68.85,153,153S366.244,325.125,282.094,325.125z M391.106,464.737l-22.95,49.726L303.131,344.25
			c26.775-3.825,51.638-11.475,72.676-24.862L440.831,489.6L391.106,464.737z"/>
	</g>
</g>
<g>
</g>
<g>
</g>
<g>
</g>
<g>
</g>
<g>
</g>
<g>
</g>
<g>
</g>
<g>
</g>
<g>
</g>
<g>
</g>
<g>
</g>
<g>
</g>
<g>
</g>
<g>
</g>
<g>
</g>

</symbol>
<symbol id="bar_chart" viewBox="0 0 24 24">
  <line x1="18" y1="20" x2="18" y2="10"/>
  <line x1="12" y1="20" x2="12" y2="4"/>
  <line x1="6" y1="20" x2="6" y2="14"/>

</symbol>
<symbol id="bar_chart_icon" viewBox="0 0 24 24">
  <line x1="12" y1="20" x2="12" y2="10"/>
  <line x1="18" y1="20" x2="18" y2="4"/>
  <line x1="6" y1="20" x2="6" y2="16"/>

</symbol>
<symbol id="battery_charging" viewBox="0 0 24 24"><g id="Icon"><path d="M13.5,17.75l3.5,0c1.519,-0 2.75,-1.231 2.75,-2.75c0,-1.743 -0,-4.257 0,-6c0,-0.729 -0.29,-1.429 -0.805,-1.945c-0.516,-0.515 -1.216,-0.805 -1.945,-0.805c-1.392,0 -3,0 -3,0c-0.414,0 -0.75,0.336 -0.75,0.75c0,0.414 0.336,0.75 0.75,0.75c0,0 1.608,0 3,-0c0.332,-0 0.649,0.132 0.884,0.366c0.234,0.235 0.366,0.552 0.366,0.884c0,1.743 0,4.257 0,6c0,0.69 -0.56,1.25 -1.25,1.25c-1.573,0 -3.5,0 -3.5,0c-0.414,0 -0.75,0.336 -0.75,0.75c0,0.414 0.336,0.75 0.75,0.75Z"/><path d="M20.25,10.5l-0,3c0,0.414 0.336,0.75 0.75,0.75c0.414,-0 0.75,-0.336 0.75,-0.75l-0,-3c0,-0.414 -0.336,-0.75 -0.75,-0.75c-0.414,-0 -0.75,0.336 -0.75,0.75Z"/><path d="M12.175,12.75l-2.792,-0c-0.45,-0 -0.866,-0.242 -1.088,-0.634c-0.222,-0.392 -0.215,-0.873 0.016,-1.259c0.839,-1.398 2.546,-4.243 2.546,-4.243c0.213,-0.355 0.674,-0.47 1.029,-0.257c0.355,0.213 0.47,0.674 0.257,1.029l-2.318,3.864l2.792,0c0.45,0 0.866,0.242 1.088,0.634c0.222,0.392 0.215,0.873 -0.016,1.259c-0.839,1.398 -2.546,4.243 -2.546,4.243c-0.213,0.355 -0.674,0.47 -1.029,0.257c-0.355,-0.213 -0.47,-0.674 -0.257,-1.029l2.318,-3.864Z"/><path d="M8.5,6.25l-3.5,0c-1.519,0 -2.75,1.231 -2.75,2.75c0,1.743 0,4.257 0,6c-0,0.729 0.29,1.429 0.805,1.945c0.516,0.515 1.216,0.805 1.945,0.805c1.392,0 3,0 3,0c0.414,0 0.75,-0.336 0.75,-0.75c0,-0.414 -0.336,-0.75 -0.75,-0.75c0,0 -1.608,0 -3,0c-0.332,0 -0.649,-0.132 -0.884,-0.366c-0.234,-0.235 -0.366,-0.552 -0.366,-0.884c0,-1.743 -0,-4.257 -0,-6c-0,-0.69 0.56,-1.25 1.25,-1.25c1.573,0 3.5,0 3.5,0c0.414,0 0.75,-0.336 0.75,-0.75c0,-0.414 -0.336,-0.75 -0.75,-0.75Z"/></g>
</symbol>
<symbol id="bell" viewBox="0 0 792 792">
<g>
	<g>
		<g>
			<path d="M686.524,658.23H105.476L121,632.985c61.372-99.805,62.127-347.94,62.127-350.433
				c0-112.181,88.426-204.086,199.229-209.692V16.565c0-9.15,7.415-16.565,16.565-16.565s16.564,7.415,16.564,16.565v56.68
				c108.061,8.475,193.405,99.114,193.405,209.314c0,2.491,0.755,250.628,62.113,350.432L686.524,658.23z M162.5,625.1h467.012
				c-53.103-117.084-53.751-332.732-53.751-342.54c0-97.504-79.329-176.833-176.84-176.833h-5.837
				c-97.504,0-176.826,79.329-176.826,176.833C216.251,292.367,215.603,508.016,162.5,625.1z"/>
			<path d="M396,792c-49.504,0-89.785-40.28-89.785-89.791c0-9.151,7.415-16.565,16.565-16.565c9.15,0,16.565,7.414,16.565,16.565
				c0,31.242,25.412,56.66,56.654,56.66c31.235,0,56.653-25.418,56.653-56.66c0-9.151,7.415-16.565,16.565-16.565
				s16.564,7.414,16.564,16.565C485.784,751.72,445.504,792,396,792z"/>
		</g>
	</g>
</g>
<g>
</g>
<g>
</g>
<g>
</g>
<g>
</g>
<g>
</g>
<g>
</g>
<g>
</g>
<g>
</g>
<g>
</g>
<g>
</g>
<g>
</g>
<g>
</g>
<g>
</g>
<g>
</g>
<g>
</g>

</symbol>
<symbol id="bell_off" viewBox="0 0 24 24"><path d="M6.27049 6.5C6.09277 7.10971 6 7.74975 6 8.4C6 15.8667 3 18 3 18H18" stroke="currentColor" stroke-linecap="round" stroke-linejoin="round"/><path d="M7.75732 3.87452C8.88254 2.67428 10.4087 2 12 2C13.5913 2 15.1174 2.67428 16.2426 3.87452C17.3678 5.07475 18 6.70261 18 8.4C18 15.8667 21 18 21 18" stroke="currentColor" stroke-linecap="round" stroke-linejoin="round"/><path d="M13.73 21C13.5542 21.3031 13.3019 21.5547 12.9982 21.7295C12.6946 21.9044 12.3504 21.9965 12 21.9965C11.6496 21.9965 11.3054 21.9044 11.0018 21.7295C10.6982 21.5547 10.4458 21.3031 10.27 21" stroke="currentColor" stroke-linecap="round" stroke-linejoin="round"/><path d="M3 3L21 21" stroke="currentColor" stroke-linecap="round" stroke-linejoin="round"/>
</symbol>
<symbol id="bigcogwheel" viewBox="0 0 611.927 611.927">
<g>
	<path d="M385.127,607.254c-0.797,0-2.319,0-3.116,0c-16.448-3.116-31.303-14.057-39.129-28.984
		c-0.797-0.797-0.797-1.594-1.594-2.319c-0.797-1.594-7.029-13.333-25.071-14.057h-0.725c-6.232,0-11.739,0-17.97,0h-0.87
		c-18.767,0-25.071,13.333-25.071,14.057c-0.797,0.797-0.797,1.594-1.594,2.319c-7.826,14.854-22.68,25.796-39.129,28.984
		c-2.319,0.797-4.71,0.797-7.029,0c-14.854-3.913-30.506-9.42-44.636-16.448c-2.319-0.797-3.913-2.319-5.507-3.913
		c-10.144-13.333-14.854-31.303-10.941-47.751c0-0.797,0-1.594,0.797-3.116c0-1.594,3.116-14.854-10.144-26.593l-0.797-0.797
		c-4.71-3.913-9.42-7.826-14.057-11.739l0,0c-6.232-4.71-12.536-7.029-19.564-7.029c-5.507,0-9.42,1.594-9.42,1.594
		c-0.797,0.797-1.594,0.797-3.116,0.797c-15.651,6.232-34.419,5.507-49.273-3.116c-2.319-0.797-3.913-2.319-4.71-4.71
		c-8.623-12.536-16.449-25.796-23.477-39.926c-0.797-2.319-1.594-3.913-1.594-6.232c0-17.246,8.623-34.419,21.883-44.636
		c0.797-0.797,1.594-1.594,2.319-1.594c0.797-0.797,11.739-9.42,9.42-27.39c0,0,0,0,0-0.797c-1.594-5.507-2.319-11.739-3.116-17.97
		c0-0.797,0-0.797,0-0.797c-3.116-17.97-17.97-21.883-17.97-21.883c-0.797,0-1.594-0.797-3.116-0.797
		c-16.449-5.507-30.506-18.767-36.013-35.216C0,284.878,0,283.284,0,280.965c1.594-14.057,3.913-28.984,7.826-43.839
		c0.797-2.319,1.594-3.913,3.116-5.507c11.739-14.057,28.984-21.883,46.157-21.158c0.797,0,1.594,0,3.116,0
		c3.913,0,16.449-0.797,24.274-14.854c0,0,0-0.797,0.797-0.797c2.319-4.71,5.507-10.144,9.42-15.651c0,0,0-0.797,0.797-0.797
		c8.623-15.651,1.594-27.39,0.797-28.984c-0.797-0.797-0.797-1.594-1.594-2.319c-9.42-15.651-11.739-34.419-4.71-51.664
		c0.797-1.594,1.594-3.913,3.116-5.507c10.144-10.144,21.158-19.564,32.897-27.39c1.594-1.594,3.913-2.319,5.507-2.319
		c17.97-3.913,36.81,1.594,50.07,13.333c0.797,0.797,1.594,0.797,2.319,1.594c0,0,7.029,6.232,17.246,6.232
		c3.116,0,7.029-0.797,10.941-1.594l0,0c6.232-2.319,12.536-4.71,17.97-6.232c16.449-6.232,18.767-20.361,18.767-21.883
		c0-0.797,0-1.594,0.797-2.319c2.319-17.97,13.333-34.419,29.709-43.041c1.594-0.797,3.913-1.594,5.507-1.594
		c15.651-0.797,26.593-0.797,42.244,0c2.319,0,3.913,0.797,5.507,1.594c16.448,8.623,27.39,24.274,29.709,42.244
		c0,0.797,0.797,1.594,0.797,3.116c0,1.594,2.319,14.854,18.767,21.883l0,0c6.232,1.594,12.536,3.913,17.97,6.232l0,0
		c3.913,1.594,7.826,2.319,10.941,2.319c10.941,0,17.246-6.232,17.246-6.232c0.797-0.797,1.594-1.594,2.319-1.594
		c13.333-11.739,32.1-17.246,50.07-13.333c2.319,0.797,3.913,1.594,5.507,2.319c11.739,8.623,22.68,17.97,32.897,27.39
		c1.594,1.594,2.319,3.116,3.116,5.507c6.232,17.246,4.71,36.013-4.71,51.664c0,0.797-0.797,1.594-1.594,2.319
		c-0.797,0.725-7.826,13.333,0.797,28.984c0,0,0,0.797,0.797,0.797c3.116,5.507,6.232,10.144,9.42,15.651c0,0,0,0.797,0.797,0.797
		c7.826,13.333,20.361,14.854,24.274,14.854c0.797,0,2.319,0,3.116,0c17.246-0.797,35.216,7.029,46.157,21.158
		c1.594,1.594,2.319,3.913,3.116,5.507c3.913,14.057,6.232,28.984,7.826,43.839c0,2.319,0,3.913-0.797,6.232
		c-6.232,17.246-19.564,29.709-36.013,35.216c-0.797,0.797-1.594,0.797-3.116,0.797c-1.594,0-14.854,4.71-17.97,22.68v0.797
		c-0.797,6.232-1.594,12.536-3.116,17.97v0.797c-2.319,15.651,9.42,24.274,9.42,24.274c0.797,0.797,1.594,1.594,2.319,2.319
		c13.333,10.941,21.883,27.39,21.883,44.636c0,2.319-0.797,4.71-1.594,6.232c-6.232,13.333-14.057,27.39-23.477,39.926
		c-1.594,1.594-3.116,3.116-4.71,4.71c-8.623,4.71-17.97,7.029-28.187,7.029l0,0c-7.029,0-14.854-1.594-21.158-3.913
		c-0.797,0-1.594-0.797-3.116-0.797l0,0c0,0-3.913-1.594-9.42-1.594c-7.029,0-13.333,2.319-18.767,7.029c0,0,0,0-0.797,0
		c-3.913,3.913-8.623,7.826-14.057,11.739c0,0-0.797,0-0.797,0.797c-11.739,10.144-11.739,21.158-10.941,25.796
		c0.797,1.594,0.797,3.116,0.797,4.71l0,0c3.116,16.448-0.797,33.622-11.739,46.157c-1.594,1.594-3.116,3.116-5.507,3.913
		c-14.057,6.232-29.709,11.739-44.636,16.448C387.445,607.254,385.924,607.254,385.127,607.254z M194.194,565.734
		c10.941,4.71,21.883,8.623,32.897,11.739c7.826-2.319,14.057-7.826,17.246-14.854c0.797-0.797,0.797-1.594,1.594-3.116
		c6.232-10.941,21.883-26.593,48.548-27.39c0.797,0,0.797,0,0.797,0h0.797c6.232,0,11.739,0,17.97,0h0.797h0.797
		c25.796,0.797,42.244,16.449,48.548,27.39c0.797,0.797,1.594,1.594,1.594,3.116c3.116,7.029,9.42,12.536,17.246,14.854
		c10.941-3.116,22.68-7.029,32.897-11.739c3.913-7.029,5.507-14.854,3.116-22.68c0-0.797-0.797-2.319-0.797-3.116
		c-2.319-12.536,0-34.419,19.564-52.461l0.797-0.797l0.797-0.797c5.507-3.913,9.42-7.826,14.057-11.739l0.797-0.797
		c0,0,0.797,0,0.797-0.797c10.941-8.623,23.477-13.333,36.81-13.333c7.826,0,14.057,1.594,17.97,3.116
		c0.797,0,2.319,0.797,3.116,0.797c3.913,1.594,7.826,2.319,11.739,2.319l0,0c3.913,0,7.826-0.797,10.942-2.319
		c6.232-9.42,12.536-19.564,17.246-29.709c-0.797-7.826-5.507-15.651-11.739-20.361c-0.797-0.797-1.594-1.594-2.319-2.319
		c-10.144-8.623-22.68-26.593-18.767-52.461v-0.797v-0.797c1.594-5.507,2.319-11.739,3.116-17.97c0-0.797,0-0.797,0-1.594v-0.797
		c5.507-25.796,23.477-38.332,35.216-43.041c0.797-0.797,1.594-0.797,3.116-1.594c7.826-2.319,14.854-7.826,18.767-15.651
		c-1.594-10.941-3.116-21.883-5.507-32.1c-6.232-6.232-14.057-9.42-22.68-8.623c-1.594,0-2.319,0-3.913,0
		c-8.623,0-32.1-3.116-47.751-28.187l-0.797-0.797c-3.116-6.232-6.232-10.942-9.42-16.449l-0.797-0.797c0,0,0-0.797-0.797-0.797
		c-12.536-23.477-7.029-44.636-0.797-55.577c0.797-0.797,0.797-1.594,1.594-3.116c4.71-7.029,6.232-15.651,3.913-24.274
		c-7.826-7.029-15.651-14.057-24.274-20.361c-8.623-0.797-17.246,2.319-23.477,7.826c-0.797,0.797-1.594,1.594-3.116,2.319
		c-0.797,5.507-12.536,13.333-30.506,13.333c-6.232,0-13.333-0.797-19.564-3.116h-0.797h-0.797
		c-5.507-2.319-11.739-4.71-17.246-6.232h-0.797c0,0,0,0-0.797,0c-24.274-9.42-34.419-29.709-36.81-42.244
		c0-0.797-0.797-2.319-0.797-3.116c-0.797-8.623-5.507-16.448-12.536-21.158c-11.739-0.797-19.564-0.797-31.303,0
		c-7.029,4.71-11.739,12.536-12.536,21.158c0,0.797,0,2.319-0.797,3.116c-2.319,12.536-11.739,32.897-36.81,42.244c0,0,0,0-0.797,0
		h-0.797c-5.507,1.594-11.739,3.913-17.246,6.232h-0.797h-0.797c-6.232,2.319-12.536,3.116-19.564,3.116
		c-17.97,0-29.709-7.826-35.216-12.536c-0.797-0.797-1.594-1.594-3.116-2.319c-6.232-6.232-14.854-9.42-23.477-7.826
		c-8.623,6.232-16.449,13.333-24.274,20.361c-2.319,8.623-0.797,17.246,3.913,24.274c0.797,0.797,0.797,1.594,1.594,3.116
		c6.232,10.942,11.739,32.897-0.797,55.577v0.797l-0.797,0.797c-3.116,5.507-6.232,10.144-9.42,15.651
		c0,0.797-0.797,0.797-0.797,1.594c-15.651,25.071-39.129,28.187-47.751,28.187c-0.797,0-2.319,0-3.116,0
		c-8.623-0.797-16.449,2.319-22.68,8.623c-2.319,10.942-4.71,21.883-5.507,32.1c3.913,7.826,10.144,13.333,18.767,15.651
		c0.797,0,2.319,0.797,3.116,1.594c11.739,4.71,29.709,17.246,35.216,43.041v0.797c0,0.797,0,0.797,0,1.594
		c0.797,6.232,1.594,11.739,3.116,17.97v0.797v0.797c3.913,25.796-8.623,43.839-18.767,52.461c-0.797,0.797-1.594,1.594-2.319,2.319
		c-7.029,4.71-10.941,12.536-11.739,20.361c5.507,10.144,10.941,20.361,17.246,29.709c7.029,3.116,15.651,3.116,23.477-0.797
		c0.797-0.797,2.319-0.797,3.116-0.797c3.913-1.594,10.144-3.116,17.97-3.116c13.333,0,25.796,4.71,36.81,13.333c0,0,0,0,0.797,0
		s0.797,0.797,1.594,0.797c3.913,3.913,8.623,7.826,14.057,11.739l0.797,0.797l0.797,0.797
		c19.564,17.246,21.883,39.926,19.564,52.461c0,0.797,0,2.319-0.797,3.116C188.687,550.88,190.281,558.705,194.194,565.734z
		 M306.072,462.478c-84.489,0-152.601-68.837-152.601-152.602s68.113-153.399,152.601-153.399s152.601,68.837,152.601,152.601
		S390.561,462.478,306.072,462.478z M306.072,185.39c-68.113,0-124.414,55.577-124.414,124.414s56.302,123.69,124.414,123.69
		s124.414-55.577,124.414-124.414S374.185,185.39,306.072,185.39z"/>
</g>
<g>
</g>
<g>
</g>
<g>
</g>
<g>
</g>
<g>
</g>
<g>
</g>
<g>
</g>
<g>
</g>
<g>
</g>
<g>
</g>
<g>
</g>
<g>
</g>
<g>
</g>
<g>
</g>
<g>
</g>

</symbol>
<symbol id="biggarbagebin" viewBox="0 0 791.908 791.908">
<g>
	<path d="M648.587,99.881H509.156C500.276,43.486,452.761,0,394.444,0S287.696,43.486,279.731,99.881H142.315
		c-26.733,0-48.43,21.789-48.43,48.43v49.437c0,24.719,17.761,44.493,41.564,47.423V727.64c0,35.613,28.655,64.268,64.268,64.268
		h392.475c35.613,0,64.268-28.655,64.268-64.268V246.087c23.711-3.937,41.564-23.711,41.564-47.423v-49.437
		C697.017,121.67,675.228,99.881,648.587,99.881z M394.444,36.62c38.543,0,70.219,26.733,77.085,63.261H316.351
		C324.225,64.268,355.901,36.62,394.444,36.62z M618.924,728.739c0,14.831-11.901,27.648-27.648,27.648H198.71
		c-14.831,0-27.648-11.901-27.648-27.648V247.185h446.948v481.554H618.924z M660.397,197.748c0,6.958-4.944,11.902-11.902,11.902
		H142.223c-6.958,0-11.902-4.944-11.902-11.902v-49.437c0-6.958,4.944-11.902,11.902-11.902h505.265
		c6.958,0,11.901,4.944,11.901,11.902v49.437H660.397z M253.09,661.45V349.081c0-9.887,7.873-17.761,17.761-17.761
		s17.761,7.873,17.761,17.761V661.45c0,9.887-7.873,17.761-17.761,17.761C260.964,680.309,253.09,671.337,253.09,661.45z
		 M378.606,661.45V349.081c0-9.887,7.873-17.761,17.761-17.761c9.887,0,17.761,7.873,17.761,17.761V661.45
		c0,9.887-7.873,17.761-17.761,17.761C386.57,680.309,378.606,671.337,378.606,661.45z M504.212,661.45V349.081
		c0-9.887,7.873-17.761,17.761-17.761s17.761,7.873,17.761,17.761V661.45c0,9.887-7.873,17.761-17.761,17.761
		C513.093,680.309,504.212,671.337,504.212,661.45z"/>
</g>
<g>
</g>
<g>
</g>
<g>
</g>
<g>
</g>
<g>
</g>
<g>
</g>
<g>
</g>
<g>
</g>
<g>
</g>
<g>
</g>
<g>
</g>
<g>
</g>
<g>
</g>
<g>
</g>
<g>
</g>

</symbol>
<symbol id="bluetooth" viewBox="0 0 791.997 791.997">
<g>
	<g id="Shape_5">
		<g>
			<path d="M415.184,395.991l184.538-181.645c2.629-2.587,4.118-6.107,4.118-9.779c0-3.659-1.475-7.178-4.118-9.765L405.919,4.045
				c-4.02-3.951-10.029-5.133-15.301-2.991c-5.259,2.142-8.667,7.178-8.667,12.77v348.168L212.117,194.802
				c-5.48-5.397-14.37-5.397-19.851,0c-5.48,5.397-5.48,14.147,0,19.544l184.538,181.645L192.267,577.635
				c-5.48,5.397-5.48,14.147,0,19.544c5.48,5.397,14.37,5.397,19.851,0l169.834-167.177V778.17c0,5.592,3.408,10.628,8.667,12.77
				c1.738,0.71,3.561,1.058,5.369,1.058c3.645,0,7.233-1.405,9.932-4.048l193.803-190.771c2.629-2.587,4.118-6.106,4.118-9.765
				c0-3.659-1.475-7.178-4.118-9.766L415.184,395.991z M410.037,47.182l159.916,157.398L410.037,361.979V47.182z M410.037,744.812
				V430.002l159.916,157.412L410.037,744.812z"/>
		</g>
	</g>
</g>
<g>
</g>
<g>
</g>
<g>
</g>
<g>
</g>
<g>
</g>
<g>
</g>
<g>
</g>
<g>
</g>
<g>
</g>
<g>
</g>
<g>
</g>
<g>
</g>
<g>
</g>
<g>
</g>
<g>
</g>

</symbol>
<symbol id="check_circle" viewBox="0 0 16 16">
  <path fill-rule="evenodd" d="M15.354 2.646a.5.5 0 0 1 0 .708l-7 7a.5.5 0 0 1-.708 0l-3-3a.5.5 0 1 1 .708-.708L8 9.293l6.646-6.647a.5.5 0 0 1 .708 0z"/>
  <path fill-rule="evenodd" d="M8 2.5A5.5 5.5 0 1 0 13.5 8a.5.5 0 0 1 1 0 6.5 6.5 0 1 1-3.25-5.63.5.5 0 1 1-.5.865A5.472 5.472 0 0 0 8 2.5z"/>

</symbol>
<symbol id="check_mark" viewBox="0 0 24 24">
  <path fill-rule="evenodd" d="M9.87685428,15.4852814 L4.92710681,10.5355339 C4.53658252,10.1450096 3.90341754,10.1450096 3.51289325,10.5355339 C3.12236896,10.9260582 3.12236896,11.5592232 3.51289325,11.9497475 L9.1697475,17.6066017 C9.36500964,17.8018639 9.62093196,17.8994949 9.87685428,17.8994949 C10.1327766,17.8994949 10.3886989,17.8018639 10.5839611,17.6066017 L20.483456,7.70710678 C20.8739803,7.31658249 20.8739803,6.68341751 20.483456,6.29289322 C20.0929317,5.90236893 19.4597667,5.90236893 19.0692424,6.29289322 L9.87685428,15.4852814 Z"/>

</symbol>
<symbol id="check_square" viewBox="0 0 16 16">
  <path d="M3 14.5A1.5 1.5 0 0 1 1.5 13V3A1.5 1.5 0 0 1 3 1.5h8a.5.5 0 0 1 0 1H3a.5.5 0 0 0-.5.5v10a.5.5 0 0 0 .5.5h10a.5.5 0 0 0 .5-.5V8a.5.5 0 0 1 1 0v5a1.5 1.5 0 0 1-1.5 1.5H3z"/>
  <path d="m8.354 10.354 7-7a.5.5 0 0 0-.708-.708L8 9.293 5.354 6.646a.5.5 0 1 0-.708.708l3 3a.5.5 0 0 0 .708 0z"/>

</symbol>
<symbol id="chevron-left" viewBox="0 0 32 32">
<g id="chevron-left">
  <line class="cls-1" x1="11" x2="20" y1="16" y2="7"/>
  <line class="cls-1" x1="20" x2="11" y1="25" y2="16"/></g>

</symbol>
<symbol id="chevron-right" viewBox="0 0 32 32">
<g id="chevron-right">
  <line class="cls-1" x1="21" x2="12" y1="16" y2="25"/>
  <line class="cls-1" x1="12" x2="21" y1="7" y2="16"/></g>

</symbol>
<symbol id="chevron_down" viewBox="0 0 12 12">
  <path fill="currentColor" d="M1.646 3.646a.5.5 0 01.638-.057l.07.057L6 7.293l3.646-3.647a.5.5 0 01.638-.057l.07.057a.5.5 0 01.057.638l-.057.07-4 4a.5.5 0 01-.638.057l-.07-.057-4-4a.5.5 0 010-.708z"/>

</symbol>
<symbol id="chevron_up" viewBox="0 0 16 16">
  <path fill-rule="evenodd" d="M7.646 4.646a.5.5 0 0 1 .708 0l6 6a.5.5 0 0 1-.708.708L8 5.707l-5.646 5.647a.5.5 0 0 1-.708-.708l6-6z"/>

</symbol>
<symbol id="clock" viewBox="0 0 32 32"><g data-name="Layer 2" id="Layer_2"><path d="M16,29A13,13,0,1,1,29,16,13,13,0,0,1,16,29ZM16,5A11,11,0,1,0,27,16,11,11,0,0,0,16,5Z"/><path d="M21.5,22.5a1,1,0,0,1-.71-.29l-5.5-5.5A1,1,0,0,1,15,16V8a1,1,0,0,1,2,0v7.59l5.21,5.2a1,1,0,0,1,0,1.42A1,1,0,0,1,21.5,22.5Z"/></g><g id="frame"><rect height="32" width="32"/></g>
</symbol>
<symbol id="cross" viewBox="0 0 16 16">
<path d="M8.88173 7.9864L13.8557 3.0257C13.954 2.91123 14.0054 2.76398 13.9996 2.61338C13.9937 2.46278 13.9311 2.31992 13.8243 2.21335C13.7174 2.10677 13.5742 2.04434 13.4232 2.03852C13.2722 2.03271 13.1245 2.08393 13.0097 2.18197L8.03573 7.14266L3.06173 2.17598C2.94874 2.0633 2.79551 2 2.63573 2C2.47595 2 2.32271 2.0633 2.20973 2.17598C2.09674 2.28866 2.03327 2.44149 2.03327 2.60084C2.03327 2.7602 2.09674 2.91302 2.20973 3.0257L7.18973 7.9864L2.20973 12.9471C2.14692 13.0007 2.0959 13.0668 2.05989 13.141C2.02388 13.2152 2.00364 13.2961 2.00045 13.3785C1.99726 13.4609 2.01118 13.5431 2.04134 13.6199C2.07151 13.6967 2.11726 13.7664 2.17574 13.8247C2.23421 13.8831 2.30414 13.9287 2.38113 13.9588C2.45813 13.9889 2.54053 14.0027 2.62316 13.9996C2.70579 13.9964 2.78687 13.9762 2.86131 13.9403C2.93575 13.9044 3.00194 13.8535 3.05573 13.7908L8.03573 8.83014L13.0097 13.7908C13.1245 13.8889 13.2722 13.9401 13.4232 13.9343C13.5742 13.9285 13.7174 13.866 13.8243 13.7595C13.9311 13.6529 13.9937 13.51 13.9996 13.3594C14.0054 13.2088 13.954 13.0616 13.8557 12.9471L8.88173 7.9864Z"/>

</symbol>
<symbol id="down_arrow" viewBox="0 0 58.999 58.999">
<g>
	<g>
		<path d="M29.167,0c-1.104,0-2,0.896-2,2v50.289L11.86,36.728c-0.781-0.781-1.922-0.781-2.703,0
			c-0.781,0.78-0.719,2.047,0.062,2.828l18.883,18.857c0.375,0.375,0.899,0.586,1.43,0.586s1.047-0.211,1.422-0.586l18.857-18.857
			c0.781-0.781,0.783-2.048,0.002-2.828c-0.781-0.781-2.296-0.781-3.077,0L31.167,52.052V2C31.167,0.895,30.271,0,29.167,0z"/>
	</g>
</g>
<g>
</g>
<g>
</g>
<g>
</g>
<g>
</g>
<g>
</g>
<g>
</g>
<g>
</g>
<g>
</g>
<g>
</g>
<g>
</g>
<g>
</g>
<g>
</g>
<g>
</g>
<g>
</g>
<g>
</g>

</symbol>
<symbol id="exclamation_triangle" viewBox="0 0 16 16">
  <path d="M7.938 2.016A.13.13 0 0 1 8.002 2a.13.13 0 0 1 .063.016.146.146 0 0 1 .054.057l6.857 11.667c.036.06.035.124.002.183a.163.163 0 0 1-.054.06.116.116 0 0 1-.066.017H1.146a.115.115 0 0 1-.066-.017.163.163 0 0 1-.054-.06.176.176 0 0 1 .002-.183L7.884 2.073a.147.147 0 0 1 .054-.057zm1.044-.45a1.13 1.13 0 0 0-1.96 0L.165 13.233c-.457.778.091 1.767.98 1.767h13.713c.889 0 1.438-.99.98-1.767L8.982 1.566z"/>
  <path d="M7.002 12a1 1 0 1 1 2 0 1 1 0 0 1-2 0zM7.1 5.995a.905.905 0 1 1 1.8 0l-.35 3.507a.552.552 0 0 1-1.1 0L7.1 5.995z"/>

</symbol>
<symbol id="eye-closed" viewBox="0 0 24 24">
<path d="M21.6458 15.2637C21.6958 15.3491 21.7284 15.4434 21.7418 15.5414C21.7552 15.6394 21.7491 15.7391 21.7238 15.8347C21.6985 15.9304 21.6546 16.02 21.5945 16.0986C21.5344 16.1772 21.4594 16.2431 21.3737 16.2925C21.2881 16.342 21.1935 16.374 21.0954 16.3868C20.9973 16.3995 20.8977 16.3927 20.8022 16.3668C20.7068 16.3409 20.6174 16.2964 20.5392 16.2358C20.4611 16.1752 20.3956 16.0997 20.3468 16.0137L18.6234 13.0288C17.6081 13.7088 16.4915 14.2239 15.3152 14.5549L15.8602 17.6453C15.8947 17.8412 15.8499 18.0428 15.7358 18.2058C15.6217 18.3687 15.4476 18.4797 15.2517 18.5142C15.2084 18.5218 15.1645 18.5256 15.1206 18.5257C14.9444 18.5254 14.774 18.4632 14.6391 18.3499C14.5042 18.2366 14.4135 18.0794 14.3828 17.906L13.8468 14.8659C12.6193 15.0452 11.3722 15.0447 10.1449 14.8645L9.60881 17.9046C9.57821 18.0781 9.48752 18.2353 9.35264 18.3486C9.21776 18.462 9.04728 18.5243 8.87109 18.5245C8.82716 18.5245 8.78331 18.5207 8.74003 18.5131C8.54413 18.4786 8.36998 18.3676 8.25588 18.2047C8.14178 18.0417 8.09707 17.8401 8.13159 17.6442L8.67666 14.5525C7.50171 14.221 6.38654 13.7058 5.37244 13.0261L3.639 16.0285C3.59043 16.1151 3.52515 16.1912 3.44695 16.2523C3.36876 16.3135 3.2792 16.3585 3.18347 16.3848C3.08774 16.4111 2.98775 16.4181 2.88929 16.4054C2.79083 16.3928 2.69586 16.3607 2.60989 16.3111C2.52392 16.2614 2.44867 16.1952 2.38848 16.1163C2.32829 16.0373 2.28438 15.9472 2.25928 15.8512C2.23419 15.7551 2.22841 15.655 2.24228 15.5567C2.25615 15.4585 2.2894 15.3639 2.34009 15.2785L4.16794 12.1126C3.53041 11.5639 2.94418 10.9583 2.4165 10.3033C2.35374 10.2268 2.30675 10.1386 2.27823 10.0439C2.24971 9.9491 2.24022 9.84963 2.25031 9.75119C2.26041 9.65274 2.28989 9.55727 2.33705 9.47027C2.38421 9.38327 2.44813 9.30646 2.52511 9.24428C2.60209 9.18209 2.69062 9.13575 2.78559 9.10794C2.88056 9.08012 2.98009 9.07137 3.07846 9.0822C3.17683 9.09303 3.27208 9.12322 3.35873 9.17102C3.44537 9.21883 3.5217 9.28332 3.58331 9.36076C4.16898 10.0896 4.83737 10.7478 5.57503 11.3223C5.58094 11.3264 5.58628 11.3311 5.592 11.3354C7.42247 12.7595 9.68091 13.5224 12 13.5C14.3185 13.5224 16.5764 12.7598 18.4066 11.3364C18.4116 11.3326 18.4162 11.3288 18.4212 11.3251C19.1603 10.75 19.8299 10.0907 20.4166 9.36076C20.5421 9.20771 20.7231 9.11049 20.92 9.09029C21.1169 9.0701 21.3138 9.12857 21.4678 9.25296C21.6218 9.37734 21.7203 9.55756 21.742 9.75432C21.7636 9.95108 21.7066 10.1484 21.5834 10.3033C21.0547 10.9596 20.4672 11.5663 19.8282 12.1158L21.6458 15.2637Z" fill="#1A141F"/>

</symbol>
<symbol id="eye" viewBox="0 0 24 24">
<path d="M21.0745 11.4357C19.0748 7.06721 16.0521 4.86877 12 4.86877C7.94578 4.86877 4.92515 7.06721 2.92546 11.4378C2.84526 11.614 2.80366 11.8063 2.80366 12.0011C2.80366 12.1959 2.84526 12.3883 2.92546 12.5644C4.92515 16.9328 7.94789 19.1313 12 19.1313C16.0542 19.1313 19.0748 16.9328 21.0745 12.5622C21.237 12.2078 21.237 11.7966 21.0745 11.4357ZM12 17.5563C8.59757 17.5563 6.1064 15.7669 4.34929 12C6.1064 8.23315 8.59757 6.44377 12 6.44377C15.4024 6.44377 17.8936 8.23315 19.6507 12C17.8957 15.7669 15.4045 17.5563 12 17.5563ZM11.9156 8.15002C9.86531 8.15002 8.20312 9.87378 8.20312 12C8.20312 14.1263 9.86531 15.85 11.9156 15.85C13.9659 15.85 15.6281 14.1263 15.6281 12C15.6281 9.87378 13.9659 8.15002 11.9156 8.15002ZM11.9156 14.45C10.6099 14.45 9.55312 13.3541 9.55312 12C9.55312 10.646 10.6099 9.55002 11.9156 9.55002C13.2213 9.55002 14.2781 10.646 14.2781 12C14.2781 13.3541 13.2213 14.45 11.9156 14.45Z" fill="#1A141F"/>

</symbol>
<symbol id="fb" viewBox="0 0 24 24">
<path fill-rule="evenodd" clip-rule="evenodd" d="M16.53 4.80239L14.5032 4.79999C12.228 4.79999 10.7556 6.19199 10.7556 8.34359V9.97799H8.71919C8.54279 9.97799 8.39999 10.11 8.39999 10.272V12.6396C8.39999 12.8016 8.54279 12.9324 8.71919 12.9324H10.7556V18.906C10.7556 19.0692 10.8996 19.2 11.0748 19.2H13.7328C13.9092 19.2 14.0508 19.068 14.0508 18.906V12.9324H16.434C16.6092 12.9324 16.752 12.8004 16.752 12.6396V10.272C16.7518 10.2329 16.7434 10.1942 16.7275 10.1585C16.7116 10.1228 16.6885 10.0907 16.6596 10.0644C16.5979 10.0083 16.5174 9.97747 16.434 9.97799H14.052V8.59199C14.052 7.92599 14.2248 7.58759 15.1656 7.58759H16.5312C16.7064 7.58759 16.8492 7.45559 16.8492 7.29359V5.09639C16.8492 4.93439 16.7064 4.80359 16.5312 4.80239H16.53Z"/>

</symbol>
<symbol id="google" viewBox="0 0 24 24">
<path d="M21.456 10.154C21.579 10.813 21.646 11.502 21.646 12.221C21.646 17.845 17.882 21.844 12.197 21.844C10.9042 21.8444 9.6239 21.59 8.42939 21.0955C7.23489 20.6009 6.14954 19.8758 5.23536 18.9616C4.32118 18.0475 3.59609 16.9621 3.10152 15.7676C2.60696 14.5731 2.3526 13.2929 2.353 12C2.3526 10.7072 2.60696 9.42691 3.10152 8.2324C3.59609 7.0379 4.32118 5.95255 5.23536 5.03837C6.14954 4.12419 7.23489 3.3991 8.42939 2.90453C9.6239 2.40997 10.9042 2.15561 12.197 2.15601C14.855 2.15601 17.076 3.13401 18.78 4.72201L16.005 7.49701V7.49001C14.972 6.50601 13.661 6.00101 12.197 6.00101C8.949 6.00101 6.309 8.74501 6.309 11.994C6.309 15.242 8.949 17.992 12.197 17.992C15.144 17.992 17.15 16.307 17.562 13.993H12.197V10.154H21.457H21.456Z" fill="#1A141F"/>

</symbol>
<symbol id="instagram" viewBox="0 0 24 24">
<path fill-rule="evenodd" clip-rule="evenodd" d="M12 4.79999C14.3448 4.79999 14.6232 4.80839 15.5496 4.85159C17.9292 4.95959 19.0416 6.08879 19.1496 8.45159C19.1916 9.37679 19.2 9.65519 19.2 12C19.2 14.346 19.1916 14.6232 19.1496 15.5484C19.0404 17.9088 17.9316 19.0404 15.5496 19.1484C14.6232 19.1916 14.346 19.2 12 19.2C9.65519 19.2 9.37679 19.1916 8.45159 19.1484C6.06479 19.0404 4.95959 17.9052 4.85159 15.5484C4.80839 14.622 4.79999 14.3448 4.79999 11.9988C4.79999 9.65399 4.80959 9.37679 4.85159 8.45039C4.95959 6.08879 6.06959 4.95839 8.45159 4.85039C9.37799 4.80839 9.65519 4.79999 12 4.79999ZM12 7.85159C11.4552 7.85159 10.9158 7.95889 10.4125 8.16737C9.90916 8.37584 9.45184 8.68141 9.06663 9.06663C8.68141 9.45184 8.37584 9.90916 8.16737 10.4125C7.95889 10.9158 7.85159 11.4552 7.85159 12C7.85159 12.5448 7.95889 13.0842 8.16737 13.5875C8.37584 14.0908 8.68141 14.5481 9.06663 14.9334C9.45184 15.3186 9.90916 15.6241 10.4125 15.8326C10.9158 16.0411 11.4552 16.1484 12 16.1484C13.1002 16.1484 14.1554 15.7113 14.9334 14.9334C15.7113 14.1554 16.1484 13.1002 16.1484 12C16.1484 10.8998 15.7113 9.8446 14.9334 9.06663C14.1554 8.28865 13.1002 7.85159 12 7.85159ZM12 14.6916C11.6417 14.6992 11.2854 14.6351 10.9522 14.5032C10.6189 14.3713 10.3153 14.1742 10.0593 13.9235C9.80316 13.6727 9.5997 13.3734 9.4608 13.043C9.32189 12.7126 9.25035 12.3578 9.25035 11.9994C9.25035 11.641 9.32189 11.2862 9.4608 10.9558C9.5997 10.6254 9.80316 10.326 10.0593 10.0753C10.3153 9.82456 10.6189 9.62746 10.9522 9.49556C11.2854 9.36367 11.6417 9.29962 12 9.30719C12.7042 9.32206 13.3745 9.61223 13.8672 10.1155C14.36 10.6188 14.6359 11.2951 14.6359 11.9994C14.6359 12.7037 14.36 13.38 13.8672 13.8833C13.3745 14.3865 12.7042 14.6767 12 14.6916ZM16.3128 6.71759C16.1854 6.71759 16.0592 6.74268 15.9415 6.79144C15.8238 6.8402 15.7168 6.91166 15.6268 7.00175C15.5367 7.09184 15.4652 7.1988 15.4164 7.31651C15.3677 7.43422 15.3426 7.56038 15.3426 7.68779C15.3426 7.8152 15.3677 7.94136 15.4164 8.05907C15.4652 8.17678 15.5367 8.28373 15.6268 8.37382C15.7168 8.46391 15.8238 8.53538 15.9415 8.58414C16.0592 8.63289 16.1854 8.65799 16.3128 8.65799C16.5701 8.65799 16.8169 8.55577 16.9988 8.37382C17.1808 8.19187 17.283 7.9451 17.283 7.68779C17.283 7.43047 17.1808 7.1837 16.9988 7.00175C16.8169 6.8198 16.5701 6.71759 16.3128 6.71759Z"/>

</symbol>
<symbol id="left_arrow" viewBox="0 0 512 512">
<g>
	<g>
		<path d="M491.318,235.318H20.682C9.26,235.318,0,244.578,0,256c0,11.423,9.26,20.682,20.682,20.682h470.636    c11.423,0,20.682-9.259,20.682-20.682C512,244.578,502.741,235.318,491.318,235.318z"/>
	</g>
</g>
<g>
	<g>
		<path d="M49.932,256L211.795,94.136c8.077-8.077,8.077-21.172,0-29.249c-8.077-8.076-21.172-8.076-29.249,0L6.058,241.375    c-8.077,8.077-8.077,21.172,0,29.249l176.488,176.488c4.038,4.039,9.332,6.058,14.625,6.058c5.293,0,10.587-2.019,14.625-6.058    c8.077-8.077,8.077-21.172,0-29.249L49.932,256z"/>
	</g>
</g>
<g>
</g>
<g>
</g>
<g>
</g>
<g>
</g>
<g>
</g>
<g>
</g>
<g>
</g>
<g>
</g>
<g>
</g>
<g>
</g>
<g>
</g>
<g>
</g>
<g>
</g>
<g>
</g>
<g>
</g>

</symbol>
<symbol id="left_arrow_inside_acircle" viewBox="0 0 612.077 612.077">
<g>
	<path d="M306.037,0.001C136.997,0.001,0,136.999,0,306.039s137.813,306.037,306.037,306.037s306.037-136.997,306.037-306.037
		C612.816,136.999,475.077,0.001,306.037,0.001z M306.037,582.332c-152.203,0-276.368-124.165-276.368-276.368
		S153.834,29.596,306.037,29.596s276.368,124.165,276.368,276.368S459.056,582.332,306.037,582.332z M462.245,305.964
		c0,8.011-6.379,14.39-14.39,14.39H213.099l83.296,83.296c5.637,5.637,5.637,15.205,0,20.843c-3.189,3.189-6.379,4.005-10.384,4.005
		c-4.005,0-7.195-1.632-10.384-4.005l-108.96-108.07c-0.816-0.816-1.632-1.632-1.632-2.374l-0.816-0.816
		c0-0.816-0.816-0.816-0.816-1.632c0-0.816,0-0.816-0.816-1.632c0-0.816,0-0.816,0-1.632c0-1.632,0-4.005,0-5.637
		c0-0.816,0-0.816,0-1.632s0-0.816,0.816-1.632c0-0.816,0.816-0.816,0.816-1.632c0,0,0-0.816,0.816-0.816
		c0.816-0.816,0.816-1.632,1.632-2.374L276.442,184.84c5.637-5.637,15.205-5.637,20.843,0c5.637,5.637,5.637,15.205,0,20.843
		l-84.186,85.076h234.683C455.792,290.759,462.245,297.954,462.245,305.964z"/>
</g>
<g>
</g>
<g>
</g>
<g>
</g>
<g>
</g>
<g>
</g>
<g>
</g>
<g>
</g>
<g>
</g>
<g>
</g>
<g>
</g>
<g>
</g>
<g>
</g>
<g>
</g>
<g>
</g>
<g>
</g>

</symbol>
<symbol id="linkedin" viewBox="0 0 24 24">
<path d="M7.90512 19V9.55422H4.68971V19H7.90512ZM6.29783 8.26379C7.4191 8.26379 8.11704 7.53846 8.11704 6.63205C8.09614 5.70519 7.41914 5 6.31911 5C5.21924 5 4.5 5.70521 4.5 6.63205C4.5 7.53851 5.19776 8.26379 6.27684 8.26379H6.29773H6.29783ZM9.68484 19H12.9002V13.725C12.9002 13.4427 12.9211 13.1607 13.006 12.9589C13.2385 12.3948 13.7676 11.8106 14.6558 11.8106C15.8193 11.8106 16.2848 12.6769 16.2848 13.9466V18.9999H19.5V13.5838C19.5 10.6824 17.9137 9.33246 15.7981 9.33246C14.0636 9.33246 13.302 10.2792 12.8789 10.924H12.9003V9.55403H9.68491C9.72711 10.4404 9.68491 18.9998 9.68491 18.9998L9.68484 19Z"/>

</symbol>
<symbol id="mail" viewBox="0 0 24 24">
<path d="M22 6C22 4.9 21.1 4 20 4H4C2.9 4 2 4.9 2 6M22 6V18C22 19.1 21.1 20 20 20H4C2.9 20 2 19.1 2 18V6M22 6L12 13L2 6" stroke-width="2" stroke-linecap="round" stroke-linejoin="round"/>

</symbol>
<symbol id="mouse-pointer" viewBox="0 0 24 24">
<path d="M13 13L19 19M3 3L10.07 19.97L12.58 12.58L19.97 10.07L3 3Z" stroke="#101828" stroke-width="2" stroke-linecap="round" stroke-linejoin="round"/>

</symbol>
<symbol id="move" viewBox="0 0 24 24">
<path d="M5 9L2 12M2 12L5 15M2 12H22M9 5L12 2M12 2L15 5M12 2V22M15 19L12 22M12 22L9 19M19 9L22 12M22 12L19 15" stroke="#101828" stroke-width="2" stroke-linecap="round" stroke-linejoin="round"/>

</symbol>
<symbol id="music" viewBox="0 0 24 24">
<path d="M9 18V5L21 3V16M9 18C9 19.6569 7.65685 21 6 21C4.34315 21 3 19.6569 3 18C3 16.3431 4.34315 15 6 15C7.65685 15 9 16.3431 9 18ZM21 16C21 17.6569 19.6569 19 18 19C16.3431 19 15 17.6569 15 16C15 14.3431 16.3431 13 18 13C19.6569 13 21 14.3431 21 16Z" stroke="#101828" stroke-width="2" stroke-linecap="round" stroke-linejoin="round"/>

</symbol>
<symbol id="navigation-2" viewBox="0 0 24 24">
<path d="M12 2L19 21L12 17L5 21L12 2Z" stroke="#101828" stroke-width="2" stroke-linecap="round" stroke-linejoin="round"/>

</symbol>
<symbol id="navigation" viewBox="0 0 24 24">
<path d="M3 11L22 2L13 21L11 13L3 11Z" stroke="#101828" stroke-width="2" stroke-linecap="round" stroke-linejoin="round"/>

</symbol>
<symbol id="octagon" viewBox="0 0 24 24">
<path d="M7.86 2H16.14L22 7.86V16.14L16.14 22H7.86L2 16.14V7.86L7.86 2Z" stroke="#101828" stroke-width="2" stroke-linecap="round" stroke-linejoin="round"/>

</symbol>
<symbol id="package" viewBox="0 0 24 24">
<path d="M16.5 9.40002L7.5 4.21002M3.27 6.96002L12 12.01L20.73 6.96002M12 22.08V12M21 16V8.00002C20.9996 7.6493 20.9071 7.30483 20.7315 7.00119C20.556 6.69754 20.3037 6.44539 20 6.27002L13 2.27002C12.696 2.09449 12.3511 2.00208 12 2.00208C11.6489 2.00208 11.304 2.09449 11 2.27002L4 6.27002C3.69626 6.44539 3.44398 6.69754 3.26846 7.00119C3.09294 7.30483 3.00036 7.6493 3 8.00002V16C3.00036 16.3508 3.09294 16.6952 3.26846 16.9989C3.44398 17.3025 3.69626 17.5547 4 17.73L11 21.73C11.304 21.9056 11.6489 21.998 12 21.998C12.3511 21.998 12.696 21.9056 13 21.73L20 17.73C20.3037 17.5547 20.556 17.3025 20.7315 16.9989C20.9071 16.6952 20.9996 16.3508 21 16Z" stroke="#101828" stroke-width="2" stroke-linecap="round" stroke-linejoin="round"/>

</symbol>
<symbol id="paperclip" viewBox="0 0 24 24">
<path d="M21.44 11.05L12.25 20.24C11.1242 21.3659 9.59723 21.9984 8.00505 21.9984C6.41286 21.9984 4.88589 21.3659 3.76005 20.24C2.6342 19.1142 2.00171 17.5872 2.00171 15.995C2.00171 14.4029 2.6342 12.8759 3.76005 11.75L12.95 2.56004C13.7006 1.80948 14.7186 1.38782 15.78 1.38782C16.8415 1.38782 17.8595 1.80948 18.61 2.56004C19.3606 3.3106 19.7823 4.32859 19.7823 5.39004C19.7823 6.4515 19.3606 7.46948 18.61 8.22004L9.41005 17.41C9.03476 17.7853 8.52577 17.9962 7.99505 17.9962C7.46432 17.9962 6.95533 17.7853 6.58005 17.41C6.20476 17.0348 5.99393 16.5258 5.99393 15.995C5.99393 15.4643 6.20476 14.9553 6.58005 14.58L15.07 6.10004" stroke="#101828" stroke-width="2" stroke-linecap="round" stroke-linejoin="round"/>

</symbol>
<symbol id="pause-circle" viewBox="0 0 24 24">
<path d="M10 15V9M14 15V9M22 12C22 17.5228 17.5228 22 12 22C6.47715 22 2 17.5228 2 12C2 6.47715 6.47715 2 12 2C17.5228 2 22 6.47715 22 12Z" stroke="#101828" stroke-width="2" stroke-linecap="round" stroke-linejoin="round"/>

</symbol>
<symbol id="pause" viewBox="0 0 24 24">
<path d="M10 4H6V20H10V4Z" stroke="#101828" stroke-width="2" stroke-linecap="round" stroke-linejoin="round"/>
<path d="M18 4H14V20H18V4Z" stroke="#101828" stroke-width="2" stroke-linecap="round" stroke-linejoin="round"/>

</symbol>
<symbol id="phone" viewBox="0 0 24 24">
<path d="M22.0004 16.92V19.92C22.0016 20.1985 21.9445 20.4741 21.8329 20.7293C21.7214 20.9845 21.5577 21.2136 21.3525 21.4018C21.1473 21.5901 20.905 21.7335 20.6412 21.8227C20.3773 21.9119 20.0978 21.945 19.8204 21.92C16.7433 21.5856 13.7874 20.5341 11.1904 18.85C8.77425 17.3146 6.72576 15.2661 5.19042 12.85C3.5004 10.2412 2.44866 7.27097 2.12042 4.17997C2.09543 3.90344 2.1283 3.62474 2.21692 3.3616C2.30555 3.09846 2.44799 2.85666 2.63519 2.6516C2.82238 2.44653 3.05023 2.28268 3.30421 2.1705C3.5582 2.05831 3.83276 2.00024 4.11042 1.99997H7.11042C7.59573 1.9952 8.06621 2.16705 8.43418 2.48351C8.80215 2.79996 9.0425 3.23942 9.11042 3.71997C9.23704 4.68004 9.47187 5.6227 9.81042 6.52997C9.94497 6.8879 9.97408 7.27689 9.89433 7.65086C9.81457 8.02482 9.62928 8.36809 9.36042 8.63998L8.09042 9.90997C9.51398 12.4135 11.5869 14.4864 14.0904 15.91L15.3604 14.64C15.6323 14.3711 15.9756 14.1858 16.3495 14.1061C16.7235 14.0263 17.1125 14.0554 17.4704 14.19C18.3777 14.5285 19.3204 14.7634 20.2804 14.89C20.7662 14.9585 21.2098 15.2032 21.527 15.5775C21.8441 15.9518 22.0126 16.4296 22.0004 16.92Z" stroke-width="2" stroke-linecap="round" stroke-linejoin="round"/>

</symbol>
<symbol id="plus" viewBox="0 0 24 24">
<path d="M18 9H11V2H9V9H2V11H9V18H11V11H18V9Z"/>

</symbol>
<symbol id="plus_circle" viewBox="0 0 16 16">
  <path fill-rule="evenodd" d="M8 15A7 7 0 1 0 8 1a7 7 0 0 0 0 14zm0 1A8 8 0 1 0 8 0a8 8 0 0 0 0 16z"/>
  <path fill-rule="evenodd" d="M8 4a.5.5 0 0 1 .5.5v3h3a.5.5 0 0 1 0 1h-3v3a.5.5 0 0 1-1 0v-3h-3a.5.5 0 0 1 0-1h3v-3A.5.5 0 0 1 8 4z"/>

</symbol>
<symbol id="right_arrow" viewBox="0 0 512 512">
<g>
	<g>
		<path d="M491.318,235.318H20.682C9.26,235.318,0,244.578,0,256c0,11.423,9.26,20.682,20.682,20.682h470.636    c11.423,0,20.682-9.259,20.682-20.682C512,244.578,502.741,235.318,491.318,235.318z"/>
	</g>
</g>
<g>
	<g>
		<path d="M505.942,241.375L329.454,64.887c-8.077-8.076-21.172-8.076-29.249,0c-8.076,8.077-8.076,21.172,0,29.249L462.069,256    L300.205,417.863c-8.076,8.077-8.076,21.172,0,29.249c4.038,4.039,9.332,6.058,14.625,6.058c5.293,0,10.587-2.019,14.625-6.058    l176.488-176.488C514.019,262.547,514.019,249.452,505.942,241.375z"/>
	</g>
</g>
<g>
</g>
<g>
</g>
<g>
</g>
<g>
</g>
<g>
</g>
<g>
</g>
<g>
</g>
<g>
</g>
<g>
</g>
<g>
</g>
<g>
</g>
<g>
</g>
<g>
</g>
<g>
</g>
<g>
</g>

</symbol>
<symbol id="settings" viewBox="0 0 24 24">
<g clip-path="url(#clip0_150_1536)">
<path d="M12 15C13.6569 15 15 13.6569 15 12C15 10.3431 13.6569 9 12 9C10.3431 9 9 10.3431 9 12C9 13.6569 10.3431 15 12 15Z" stroke="#1A1A1A" stroke-width="2" stroke-linecap="round" stroke-linejoin="round"/>
<path d="M19.4 15C19.2669 15.3016 19.2272 15.6362 19.286 15.9606C19.3448 16.285 19.4995 16.5843 19.73 16.82L19.79 16.88C19.976 17.0657 20.1235 17.2863 20.2241 17.5291C20.3248 17.7719 20.3766 18.0322 20.3766 18.295C20.3766 18.5578 20.3248 18.8181 20.2241 19.0609C20.1235 19.3037 19.976 19.5243 19.79 19.71C19.6043 19.896 19.3837 20.0435 19.1409 20.1441C18.8981 20.2448 18.6378 20.2966 18.375 20.2966C18.1122 20.2966 17.8519 20.2448 17.6091 20.1441C17.3663 20.0435 17.1457 19.896 16.96 19.71L16.9 19.65C16.6643 19.4195 16.365 19.2648 16.0406 19.206C15.7162 19.1472 15.3816 19.1869 15.08 19.32C14.7842 19.4468 14.532 19.6572 14.3543 19.9255C14.1766 20.1938 14.0813 20.5082 14.08 20.83V21C14.08 21.5304 13.8693 22.0391 13.4942 22.4142C13.1191 22.7893 12.6104 23 12.08 23C11.5496 23 11.0409 22.7893 10.6658 22.4142C10.2907 22.0391 10.08 21.5304 10.08 21V20.91C10.0723 20.579 9.96512 20.258 9.77251 19.9887C9.5799 19.7194 9.31074 19.5143 9 19.4C8.69838 19.2669 8.36381 19.2272 8.03941 19.286C7.71502 19.3448 7.41568 19.4995 7.18 19.73L7.12 19.79C6.93425 19.976 6.71368 20.1235 6.47088 20.2241C6.22808 20.3248 5.96783 20.3766 5.705 20.3766C5.44217 20.3766 5.18192 20.3248 4.93912 20.2241C4.69632 20.1235 4.47575 19.976 4.29 19.79C4.10405 19.6043 3.95653 19.3837 3.85588 19.1409C3.75523 18.8981 3.70343 18.6378 3.70343 18.375C3.70343 18.1122 3.75523 17.8519 3.85588 17.6091C3.95653 17.3663 4.10405 17.1457 4.29 16.96L4.35 16.9C4.58054 16.6643 4.73519 16.365 4.794 16.0406C4.85282 15.7162 4.81312 15.3816 4.68 15.08C4.55324 14.7842 4.34276 14.532 4.07447 14.3543C3.80618 14.1766 3.49179 14.0813 3.17 14.08H3C2.46957 14.08 1.96086 13.8693 1.58579 13.4942C1.21071 13.1191 1 12.6104 1 12.08C1 11.5496 1.21071 11.0409 1.58579 10.6658C1.96086 10.2907 2.46957 10.08 3 10.08H3.09C3.42099 10.0723 3.742 9.96512 4.0113 9.77251C4.28059 9.5799 4.48572 9.31074 4.6 9C4.73312 8.69838 4.77282 8.36381 4.714 8.03941C4.65519 7.71502 4.50054 7.41568 4.27 7.18L4.21 7.12C4.02405 6.93425 3.87653 6.71368 3.77588 6.47088C3.67523 6.22808 3.62343 5.96783 3.62343 5.705C3.62343 5.44217 3.67523 5.18192 3.77588 4.93912C3.87653 4.69632 4.02405 4.47575 4.21 4.29C4.39575 4.10405 4.61632 3.95653 4.85912 3.85588C5.10192 3.75523 5.36217 3.70343 5.625 3.70343C5.88783 3.70343 6.14808 3.75523 6.39088 3.85588C6.63368 3.95653 6.85425 4.10405 7.04 4.29L7.1 4.35C7.33568 4.58054 7.63502 4.73519 7.95941 4.794C8.28381 4.85282 8.61838 4.81312 8.92 4.68H9C9.29577 4.55324 9.54802 4.34276 9.72569 4.07447C9.90337 3.80618 9.99872 3.49179 10 3.17V3C10 2.46957 10.2107 1.96086 10.5858 1.58579C10.9609 1.21071 11.4696 1 12 1C12.5304 1 13.0391 1.21071 13.4142 1.58579C13.7893 1.96086 14 2.46957 14 3V3.09C14.0013 3.41179 14.0966 3.72618 14.2743 3.99447C14.452 4.26276 14.7042 4.47324 15 4.6C15.3016 4.73312 15.6362 4.77282 15.9606 4.714C16.285 4.65519 16.5843 4.50054 16.82 4.27L16.88 4.21C17.0657 4.02405 17.2863 3.87653 17.5291 3.77588C17.7719 3.67523 18.0322 3.62343 18.295 3.62343C18.5578 3.62343 18.8181 3.67523 19.0609 3.77588C19.3037 3.87653 19.5243 4.02405 19.71 4.21C19.896 4.39575 20.0435 4.61632 20.1441 4.85912C20.2448 5.10192 20.2966 5.36217 20.2966 5.625C20.2966 5.88783 20.2448 6.14808 20.1441 6.39088C20.0435 6.63368 19.896 6.85425 19.71 7.04L19.65 7.1C19.4195 7.33568 19.2648 7.63502 19.206 7.95941C19.1472 8.28381 19.1869 8.61838 19.32 8.92V9C19.4468 9.29577 19.6572 9.54802 19.9255 9.72569C20.1938 9.90337 20.5082 9.99872 20.83 10H21C21.5304 10 22.0391 10.2107 22.4142 10.5858C22.7893 10.9609 23 11.4696 23 12C23 12.5304 22.7893 13.0391 22.4142 13.4142C22.0391 13.7893 21.5304 14 21 14H20.91C20.5882 14.0013 20.2738 14.0966 20.0055 14.2743C19.7372 14.452 19.5268 14.7042 19.4 15Z" stroke-width="2" stroke-linecap="round" stroke-linejoin="round"/>
</g>
<defs>
<clipPath id="clip0_150_1536">
<rect width="24" height="24" fill="white"/>
</clipPath>
</defs>

</symbol>
<symbol id="telegram" viewBox="0 0 24 24">
<path d="M22.4393 4.62225L19.2705 19.566C19.0313 20.6205 18.408 20.883 17.5223 20.3865L12.6938 16.8285L10.3643 19.0695C10.1063 19.3275 9.89101 19.5428 9.39376 19.5428L9.74101 14.6258L18.6893 6.54C19.0785 6.1935 18.6045 6.00075 18.0848 6.348L7.02226 13.314L2.25976 11.823C1.22401 11.4998 1.20526 10.7873 2.47576 10.29L21.1035 3.11325C21.966 2.79 22.7205 3.30525 22.4393 4.623V4.62225Z"/>

</symbol>
<symbol id="trash" viewBox="0 0 24 24">
  <path d="M3 6H5M5 6H21M5 6V20C5 20.5304 5.21071 21.0391 5.58579 21.4142C5.96086 21.7893 6.46957 22 7 22H17C17.5304 22 18.0391 21.7893 18.4142 21.4142C18.7893 21.0391 19 20.5304 19 20V6H5ZM8 6V4C8 3.46957 8.21071 2.96086 8.58579 2.58579C8.96086 2.21071 9.46957 2 10 2H14C14.5304 2 15.0391 2.21071 15.4142 2.58579C15.7893 2.96086 16 3.46957 16 4V6M10 11V17M14 11V17" stroke-width="2" stroke-linecap="round" stroke-linejoin="round"/>

</symbol>
<symbol id="twitter" viewBox="0 0 24 24">
<path fill-rule="evenodd" clip-rule="evenodd" d="M21.2832 6.51481C20.6199 6.80696 19.9171 6.99983 19.1976 7.08721C19.9548 6.63182 20.5217 5.91789 20.7936 5.07721C20.0779 5.49377 19.2981 5.78896 18.486 5.95081C17.9399 5.36559 17.2157 4.97723 16.426 4.84613C15.6363 4.71502 14.8255 4.84852 14.1195 5.22586C13.4136 5.6032 12.8521 6.20323 12.5224 6.93264C12.1927 7.66206 12.1132 8.47998 12.2964 9.25921C10.8531 9.1896 9.44067 8.81669 8.15111 8.16478C6.86155 7.51287 5.72381 6.59658 4.81201 5.47561C4.49641 6.00841 4.32001 6.62761 4.32001 7.30201C4.32001 8.56441 4.96201 9.67441 5.93521 10.326C5.3588 10.3075 4.79516 10.1516 4.29121 9.87121V9.91681C4.29058 10.7558 4.58029 11.5691 5.11116 12.2187C5.64203 12.8684 6.38134 13.3143 7.20361 13.4808C6.67102 13.6229 6.11334 13.6438 5.57161 13.542C5.80497 14.2637 6.25769 14.8946 6.86665 15.3467C7.47562 15.7989 8.21048 16.0498 8.96881 16.0644C8.21658 16.6555 7.35528 17.0926 6.43409 17.3508C5.5129 17.609 4.54987 17.6832 3.60001 17.5692C5.26524 18.6354 7.20147 19.2014 9.17881 19.2C15.8628 19.2 19.512 13.6668 19.512 8.87521C19.512 8.72161 19.512 8.56561 19.5012 8.41081C20.2147 7.89753 20.83 7.2602 21.318 6.52921L21.282 6.51481H21.2832Z"/>

</symbol>
<symbol id="user" viewBox="0 0 24 24">
<path d="M20 21V19C20 17.9391 19.5786 16.9217 18.8284 16.1716C18.0783 15.4214 17.0609 15 16 15H8C6.93913 15 5.92172 15.4214 5.17157 16.1716C4.42143 16.9217 4 17.9391 4 19V21M16 7C16 9.20914 14.2091 11 12 11C9.79086 11 8 9.20914 8 7C8 4.79086 9.79086 3 12 3C14.2091 3 16 4.79086 16 7Z" stroke-width="2" stroke-linecap="round" stroke-linejoin="round"/>

</symbol>
<symbol id="viber" viewBox="0 0 24 24">
<path d="M19.6218 17.4146C18.7251 18.2081 17.4256 18.7772 15.7232 19.122C14.0208 19.4667 12.2664 19.5675 10.46 19.4244L7.02924 22V18.7805C5.89864 18.4293 5.01494 17.974 4.37817 17.4146C3.62443 16.7512 3.03964 15.7984 2.62378 14.5561C2.20793 13.3138 2 12.0455 2 10.7512C2 9.45691 2.20793 8.18862 2.62378 6.94634C3.03964 5.70407 3.62768 4.74797 4.38791 4.07805C5.14815 3.40813 6.23652 2.89431 7.65302 2.53659C9.06953 2.17886 10.5185 2 12 2C13.4815 2 14.9305 2.17886 16.347 2.53659C17.7635 2.89431 18.8519 3.40813 19.6121 4.07805C20.3723 4.74797 20.9604 5.70407 21.3762 6.94634C21.7921 8.18862 22 9.45691 22 10.7512C22 12.0455 21.7921 13.3138 21.3762 14.5561C20.9604 15.7984 20.3756 16.7512 19.6218 17.4146ZM14.4561 12.6341L15.7232 12.8488C15.6192 11.2878 15.0182 9.95447 13.9201 8.84878C12.822 7.74309 11.4932 7.13821 9.93372 7.03415L10.1481 8.30244C11.2658 8.44553 12.2274 8.92033 13.0331 9.72683C13.8389 10.5333 14.3132 11.5024 14.4561 12.6341ZM10.3626 9.60976L10.5965 11.0146C11.1163 11.2748 11.4997 11.6585 11.7466 12.1659L13.1501 12.4C12.9942 11.7106 12.6628 11.1154 12.1559 10.6146C11.6491 10.1138 11.0513 9.77886 10.3626 9.60976ZM8.2768 10.761V9.5122C8.2768 9.29106 8.19558 9.06992 8.03314 8.84878C7.8707 8.62764 7.69851 8.46829 7.51657 8.37073C7.33463 8.27317 7.19818 8.26341 7.10721 8.34146L6.21053 9.25854C5.7037 9.76585 5.62898 10.5561 5.98635 11.6293C6.34373 12.7024 7.02599 13.7431 8.03314 14.7512C9.04029 15.7593 10.0799 16.4423 11.152 16.8C12.2242 17.1577 13.0071 17.0829 13.501 16.5756L14.4172 15.6585C14.5081 15.5805 14.5049 15.4472 14.4074 15.2585C14.3099 15.0699 14.1507 14.8976 13.9298 14.7415C13.7089 14.5854 13.488 14.5073 13.2671 14.5073H12.0195L11.2982 15.1317C10.7264 14.9756 10.0149 14.4715 9.16374 13.6195C8.31254 12.7675 7.80897 12.0488 7.65302 11.4634L8.2768 10.761ZM9.52437 4.51707L9.7193 5.78537C11.0188 5.81138 12.2209 6.15285 13.3255 6.80976C14.4302 7.46667 15.3073 8.34472 15.9571 9.4439C16.6069 10.5431 16.9513 11.7431 16.9903 13.0439L18.2573 13.2585C18.2573 12.0748 18.0266 10.9431 17.5653 9.86341C17.104 8.78374 16.4834 7.85366 15.7037 7.07317C14.924 6.29268 13.9948 5.67154 12.9162 5.20976C11.8376 4.74797 10.707 4.51707 9.52437 4.51707Z"/>

</symbol>
<symbol id="vk" viewBox="0 0 24 24">
<path fill-rule="evenodd" clip-rule="evenodd" d="M12.8832 17.9916C13.0902 17.9631 13.2827 17.8694 13.4328 17.724C13.6008 17.55 13.6008 17.226 13.6008 17.226C13.6008 17.226 13.5768 15.7044 14.2968 15.4812C15.0048 15.2592 15.9048 16.95 16.8648 17.6004C17.5968 18.0972 18.1488 17.9904 18.1488 17.9904L20.7168 17.9556C20.7168 17.9556 22.0632 17.8716 21.4272 16.8288C21.3792 16.746 21.0672 16.0584 19.5312 14.6484C17.9208 13.1784 18.1368 13.416 20.0712 10.8672C21.2472 9.3144 21.7272 8.3664 21.5712 7.9632C21.4392 7.584 20.5632 7.6776 20.5632 7.6776L17.682 7.7016C17.682 7.7016 17.466 7.6776 17.31 7.7736C17.154 7.8672 17.058 8.082 17.058 8.082C17.058 8.082 16.602 9.2904 15.99 10.3104C14.6916 12.4656 14.1756 12.5844 13.9716 12.4428C13.488 12.1332 13.6116 11.1948 13.6116 10.5216C13.6116 8.4348 13.9356 7.5576 12.9876 7.3332C12.6756 7.2612 12.4428 7.2156 11.6388 7.2024C10.6068 7.1904 9.73684 7.2108 9.24364 7.4484C8.91964 7.608 8.66764 7.9632 8.81164 7.9812C9.00364 8.0052 9.43564 8.0964 9.66364 8.406C9.96364 8.8056 9.95164 9.6984 9.95164 9.6984C9.95164 9.6984 10.1196 12.1584 9.55564 12.4656C9.15964 12.672 8.63164 12.2436 7.47964 10.2876C6.89164 9.2916 6.44764 8.1792 6.44764 8.1792C6.44764 8.1792 6.36364 7.9764 6.20764 7.8576C6.02404 7.728 5.76004 7.68 5.76004 7.68L3.01204 7.704C3.01204 7.704 2.60404 7.716 2.46124 7.8936C2.32924 8.0472 2.44924 8.3796 2.44924 8.3796C2.44924 8.3796 4.59724 13.3464 7.03324 15.8472C9.26524 18.1392 11.7984 17.9916 11.7984 17.9916H12.882H12.8832Z"/>

</symbol>
<symbol id="warning_octagon" viewBox="0 0 256 256">
  <path d="M122,136.00012v-56a6,6,0,1,1,12,0v56a6,6,0,1,1-12,0ZM230,91.54944V164.4508a13.90917,13.90917,0,0,1-4.09961,9.89893l-51.55078,51.54981a13.90615,13.90615,0,0,1-9.89844,4.10058H91.54883a13.90853,13.90853,0,0,1-9.89942-4.10107L30.10059,174.35022A13.908,13.908,0,0,1,26,164.4508V91.54944A13.91114,13.91114,0,0,1,30.09961,81.65l51.55078-51.5498a13.90768,13.90768,0,0,1,9.89844-4.1001h72.90234a13.91006,13.91006,0,0,1,9.89942,4.10059l51.54882,51.54883A13.91,13.91,0,0,1,230,91.54944Zm-12,0a1.98775,1.98775,0,0,0-.58594-1.415L165.86523,38.58557a2.01562,2.01562,0,0,0-1.41406-.58545H91.54883a2.01164,2.01164,0,0,0-1.41309.58545L38.585,90.13489A1.98891,1.98891,0,0,0,38,91.54944V164.4508a1.98666,1.98666,0,0,0,.58594,1.41456l51.54883,51.54882a2.014,2.014,0,0,0,1.41406.58594h72.90234a2.01164,2.01164,0,0,0,1.41309-.58545l51.55078-51.5498A1.98782,1.98782,0,0,0,218,164.4508Zm-90,70.45068a10,10,0,1,0,10,10A10.01146,10.01146,0,0,0,128,162.00012Z"/>

</symbol>
<symbol id="whatsapp" viewBox="0 0 24 24">
<path d="M20.16 6.84C17.28 2.4 11.4 1.08 6.84 3.84C2.4 6.6 0.960003 12.6 3.84 17.04L4.08 17.4L3.12 21L6.72 20.04L7.08 20.28C8.64 21.12 10.32 21.6 12 21.6C13.8 21.6 15.6 21.12 17.16 20.16C21.6 17.28 22.92 11.4 20.16 6.84ZM17.64 16.08C17.16 16.8 16.56 17.28 15.72 17.4C15.24 17.4 14.64 17.64 12.24 16.68C10.2 15.72 8.52 14.16 7.32 12.36C6.6 11.52 6.24 10.44 6.12 9.36C6.12 8.4 6.48 7.56 7.08 6.96C7.32 6.72 7.56 6.6 7.8 6.6H8.4C8.64 6.6 8.88 6.6 9 7.08C9.24 7.68 9.84 9.12 9.84 9.24C9.96 9.36 9.96 9.6 9.84 9.72C9.96 9.96 9.84 10.2 9.72 10.32C9.6 10.44 9.48 10.68 9.36 10.8C9.12 10.92 9 11.16 9.12 11.4C9.6 12.12 10.2 12.84 10.8 13.44C11.52 14.04 12.24 14.52 13.08 14.88C13.32 15 13.56 15 13.68 14.76C13.8 14.52 14.4 13.92 14.64 13.68C14.88 13.44 15 13.44 15.24 13.56L17.16 14.52C17.4 14.64 17.64 14.76 17.76 14.88C17.88 15.24 17.88 15.72 17.64 16.08Z"/>

</symbol>
<symbol id="x_circle" viewBox="0 0 256 256">
  <path d="M127.99951,26.00012a102,102,0,1,0,102,102A102.1153,102.1153,0,0,0,127.99951,26.00012Zm0,192a90,90,0,1,1,90-90A90.10218,90.10218,0,0,1,127.99951,218.00012ZM164.2417,100.2428l-27.75732,27.75732,27.75732,27.75733a5.99971,5.99971,0,1,1-8.48438,8.48535L127.99951,136.485,100.2417,164.2428a5.99971,5.99971,0,0,1-8.48438-8.48535l27.75733-27.75733L91.75732,100.2428a5.99971,5.99971,0,1,1,8.48438-8.48535l27.75781,27.75781,27.75781-27.75781a5.99971,5.99971,0,0,1,8.48438,8.48535Z"/>

</symbol>
<symbol id="youtube" viewBox="0 0 24 24">
<path d="M7.58115 5H8.46264L9.03122 7.06201H9.08623L9.62685 5H10.5169L9.49832 8.01826V10.1585H8.62295V8.1147L7.58115 5Z" fill="#1A141F"/>
<path d="M10.5798 7.22355C10.5798 6.92804 10.6843 6.69334 10.8943 6.51905C11.1034 6.34436 11.3854 6.25687 11.7378 6.25687C12.0593 6.25687 12.3234 6.349 12.5295 6.53339C12.734 6.71736 12.837 6.95476 12.837 7.24487V9.21081C12.837 9.53613 12.7363 9.791 12.5357 9.97654C12.3327 10.1617 12.0562 10.2546 11.7022 10.2546C11.3629 10.2546 11.0903 10.1586 10.8858 9.96807C10.6828 9.77671 10.5798 9.51917 10.5798 9.19579L10.5798 7.22355ZM11.3799 9.26773C11.3799 9.37191 11.4086 9.45206 11.4636 9.50978C11.5186 9.56709 11.5976 9.59536 11.7006 9.59536C11.806 9.59536 11.8889 9.56597 11.9516 9.50823C12.0136 9.44934 12.0446 9.36921 12.0446 9.2677V7.19447C12.0446 7.11125 12.0128 7.04423 11.9493 6.9927C11.8858 6.9416 11.8029 6.9164 11.7006 6.9164C11.6054 6.9164 11.5287 6.9416 11.469 6.9927C11.4102 7.04423 11.38 7.11119 11.38 7.19447V9.26773H11.3799Z" fill="#1A141F"/>
<path d="M15.6858 6.35291V10.1586H14.9081V9.73837C14.7663 9.89289 14.6169 10.0118 14.4611 10.0923C14.3062 10.1733 14.1559 10.2136 14.0102 10.2136C13.829 10.2136 13.695 10.1567 13.6036 10.0436C13.513 9.9301 13.4673 9.76047 13.4673 9.53348V6.35291H14.2434V9.27045C14.2434 9.36071 14.2613 9.42576 14.2938 9.46603C14.3255 9.50636 14.379 9.52684 14.4518 9.52684C14.5084 9.52684 14.5812 9.49976 14.6687 9.44668C14.7554 9.39325 14.836 9.32501 14.908 9.2414V6.35291H15.6858Z" fill="#1A141F"/>
<path d="M13.3075 14.8495C13.258 14.8495 13.2092 14.86 13.1611 14.8832C13.1131 14.9057 13.0659 14.9409 13.0186 14.9886V17.1412C13.0744 17.1969 13.1294 17.2391 13.1828 17.2632C13.2356 17.2875 13.2906 17.3008 13.3494 17.3008C13.4338 17.3008 13.4958 17.2763 13.5353 17.2268C13.5748 17.1783 13.5957 17.1001 13.5957 16.989V15.205C13.5957 15.0884 13.5716 14.9997 13.5229 14.9393C13.4725 14.8797 13.4004 14.8495 13.3075 14.8495Z" fill="#1A141F"/>
<path d="M15.6888 14.8619C15.5789 14.8619 15.4999 14.8925 15.4518 14.9572C15.4038 15.0176 15.3806 15.1221 15.3806 15.2667V15.6156H15.991V15.2667C15.991 15.1222 15.9662 15.0176 15.9181 14.9572C15.8716 14.8925 15.7934 14.8619 15.6888 14.8619Z" fill="#1A141F"/>
<path d="M17.2636 12.1721C16.6966 11.6148 11.9172 11.6074 11.9172 11.6078C11.9172 11.6074 7.13867 11.6148 6.57012 12.1721C6.00155 12.7302 6 15.4855 6 15.5014V15.5064C6 15.5223 6.00158 18.2729 6.57012 18.8311C7.13861 19.388 11.9172 19.4 11.9172 19.4C11.9172 19.4 16.6966 19.388 17.2636 18.831C17.8345 18.271 17.8391 15.5014 17.8391 15.5014C17.8391 15.4855 17.8329 12.7302 17.2636 12.1721ZM9.52597 13.7953H8.72115V17.798H7.94265V13.7953H7.13783V13.1152H9.52595L9.52597 13.7953ZM11.8018 17.7981H11.1116V17.4181C10.983 17.5591 10.8513 17.6656 10.7127 17.7384C10.5748 17.8128 10.4415 17.8484 10.3114 17.8484C10.151 17.8484 10.0325 17.7981 9.95044 17.6943C9.87065 17.5908 9.82958 17.4379 9.82958 17.2315V14.3429H10.5198V16.9929C10.5198 17.075 10.5345 17.1338 10.5624 17.1702C10.5926 17.2074 10.6399 17.2252 10.7042 17.2252C10.7546 17.2252 10.8196 17.2008 10.8971 17.1524C10.9753 17.1036 11.0458 17.0424 11.1116 16.9677V14.343H11.8018L11.8018 17.7981ZM14.3069 17.0842C14.3069 17.3286 14.2526 17.5161 14.1442 17.6466C14.0366 17.7775 13.8793 17.8418 13.6748 17.8418C13.5393 17.8418 13.4192 17.8174 13.3138 17.7671C13.2085 17.7167 13.1085 17.6393 13.0187 17.5332V17.7981H12.3208V13.1152H13.0187V14.6229C13.1124 14.5183 13.2108 14.4374 13.3146 14.3832C13.4199 14.3282 13.5261 14.3011 13.633 14.3011C13.8522 14.3011 14.0187 14.3747 14.1334 14.5211C14.2496 14.6686 14.3069 14.8844 14.3069 15.1671V17.0842H14.3069ZM16.7012 16.1532H15.3804V16.8042C15.3804 16.9863 15.403 17.1121 15.4478 17.183C15.4943 17.2531 15.5718 17.2876 15.6818 17.2876C15.7964 17.2876 15.8762 17.2578 15.9219 17.1982C15.9668 17.1385 15.9908 17.0076 15.9908 16.8042V16.6466H16.7011V16.824C16.7011 17.1784 16.6151 17.4453 16.4409 17.6253C16.2689 17.8035 16.0102 17.8922 15.6663 17.8922C15.3572 17.8922 15.1132 17.798 14.9358 17.6075C14.7583 17.4181 14.6685 17.157 14.6685 16.824V15.2725C14.6685 14.9739 14.7669 14.7283 14.9621 14.5401C15.1572 14.3515 15.4082 14.2573 15.7181 14.2573C16.0341 14.2573 16.2774 14.3448 16.447 14.5195C16.6166 14.6938 16.7011 14.9448 16.7011 15.2725V16.1532H16.7012V16.1532Z" fill="#1A141F"/>

</symbol></svg>